<svg width="30" height="30" viewBox="0 0 30 30" fill="none" xmlns="http://www.w3.org/2000/svg">
<path d="M3.33334 13.3337H22.6425L13.8217 4.51202C13.5181 4.19768 13.3501 3.77668 13.3539 3.33968C13.3577 2.90269 13.533 2.48467 13.842 2.17566C14.151 1.86664 14.569 1.69136 15.006 1.68756C15.443 1.68377 15.864 1.85176 16.1784 2.15535L27.845 13.822C28.1575 14.1346 28.333 14.5584 28.333 15.0004C28.333 15.4423 28.1575 15.8661 27.845 16.1787L16.1784 27.8454C15.864 28.1489 15.443 28.3169 15.006 28.3131C14.569 28.3093 14.151 28.1341 13.842 27.825C13.533 27.516 13.3577 27.098 13.3539 26.661C13.3501 26.224 13.5181 25.803 13.8217 25.4887L22.6425 16.667H3.33334C2.89132 16.667 2.46739 16.4914 2.15483 16.1789C1.84227 15.8663 1.66668 15.4424 1.66668 15.0004C1.66668 14.5583 1.84227 14.1344 2.15483 13.8218C2.46739 13.5093 2.89132 13.3337 3.33334 13.3337Z" fill="url(#paint0_linear_477_11339)"/>
<defs>
<linearGradient id="paint0_linear_477_11339" x1="31.4499" y1="1.6875" x2="-2.2553" y2="3.87239" gradientUnits="userSpaceOnUse">
<stop stop-color="#FC9102"/>
<stop offset="1" stop-color="#FFA32E"/>
</linearGradient>
</defs>
</svg>
