<svg width="20" height="20" viewBox="0 0 20 20" fill="none" xmlns="http://www.w3.org/2000/svg">
<path d="M-4.37114e-07 10C-1.95702e-07 4.47715 4.47715 1.95702e-07 10 4.37114e-07C15.5229 6.78525e-07 20 4.47715 20 10C20 15.5229 15.5228 20 10 20C4.47719 20 -6.78525e-07 15.5229 -4.37114e-07 10ZM10.975 13.5507L14.3185 10.2072C14.8569 9.66883 14.8569 8.79582 14.3185 8.25734C13.78 7.71891 12.907 7.71891 12.3686 8.25734L10 10.6259L7.63145 8.25734C7.09301 7.71891 6.22 7.71891 5.68156 8.25734C5.14312 8.79578 5.14312 9.66883 5.68156 10.2072L9.02508 13.5507C9.56348 14.0892 10.4365 14.0892 10.975 13.5507Z" fill="#0F4D52"/>
</svg>
