<svg width="11" height="7" viewBox="0 0 11 7" fill="none" xmlns="http://www.w3.org/2000/svg">
<path d="M10.4793 1.04514C10.4826 0.897947 10.4399 0.753401 10.3572 0.631598C10.2745 0.509796 10.1558 0.41679 10.0178 0.365512C9.87978 0.314233 9.72924 0.30723 9.58707 0.345475C9.44489 0.383721 9.31822 0.465314 9.22456 0.578912L5.51135 4.91332L1.79945 0.578912C1.7417 0.50033 1.66837 0.43452 1.58401 0.385603C1.49964 0.336685 1.40605 0.305715 1.30916 0.29463C1.21227 0.283545 1.11416 0.292585 1.02092 0.321183C0.92769 0.349782 0.841337 0.397323 0.767326 0.460829C0.693316 0.524335 0.63328 0.602439 0.590853 0.690249C0.548425 0.778059 0.524595 0.873684 0.520835 0.971134C0.517075 1.06858 0.533422 1.16576 0.568957 1.25658C0.604493 1.3474 0.658396 1.4299 0.727293 1.49892L4.97319 6.46142C5.03969 6.53935 5.12224 6.60193 5.21527 6.64484C5.3083 6.68775 5.40956 6.70997 5.51201 6.70997C5.61446 6.70997 5.71571 6.68775 5.80874 6.64484C5.90177 6.60193 5.9844 6.53935 6.0509 6.46142L10.3009 1.49892C10.4122 1.37356 10.4754 1.21277 10.4793 1.04514Z" fill="black"/>
</svg>
