<svg width="50" height="50" viewBox="0 0 50 50" fill="none" xmlns="http://www.w3.org/2000/svg">
<g clip-path="url(#clip0_407_9553)">
<path d="M48.5352 8.21665C46.8848 8.21665 45.2983 8.29604 43.7869 8.43267V4.93823C43.7869 4.12925 43.1311 3.47339 42.3221 3.47339C35.6738 3.47339 31.2355 6.13794 28.6829 8.37319C26.8451 9.98257 25.6963 11.6023 25.1132 12.5473H24.8874C24.3043 11.6023 23.1556 9.98257 21.3177 8.37319C18.765 6.13794 14.3268 3.47339 7.67852 3.47339C6.86953 3.47339 6.21367 4.12925 6.21367 4.93823V8.40903C4.71885 8.28667 3.13457 8.21665 1.46484 8.21665C0.655859 8.21665 0 8.87251 0 9.68149V40.731C0 41.54 0.655859 42.1959 1.46484 42.1959C13.798 42.1959 21.3143 46.299 21.3864 46.3391C21.3877 46.3398 21.389 46.3401 21.3902 46.3408C21.6014 46.4586 21.8442 46.5265 22.1032 46.5265H27.8965C28.1281 46.5265 28.3465 46.4712 28.5412 46.3755C28.5444 46.3744 28.5478 46.3738 28.551 46.3721C28.6348 46.3304 37.0662 42.1959 48.5351 42.1959C49.344 42.1959 49.9999 41.54 49.9999 40.731V9.68149C50 8.87241 49.3441 8.21665 48.5352 8.21665ZM30.7094 10.4935C33.5149 8.07466 36.923 6.71851 40.8572 6.4519V8.77876C35.7085 9.52983 31.6839 10.8707 29.3823 11.7749C29.7675 11.359 30.2084 10.9254 30.7094 10.4935ZM9.14346 6.4519C13.0776 6.71841 16.4857 8.07466 19.2913 10.4935C19.7479 10.8872 20.1547 11.2822 20.5148 11.6639C18.247 10.7352 14.3709 9.43569 9.14346 8.7269V6.4519ZM2.92969 11.1657C12.24 11.4127 18.5579 13.9544 20.6385 14.9203V42.7641C17.5874 41.5006 11.458 39.4948 2.92969 39.2842V11.1657ZM23.5682 15.477H26.4317V43.5967H23.5682V15.477ZM47.0703 39.2868C38.94 39.5155 32.516 41.5913 29.3614 42.8325V14.9569C31.6123 13.9917 38.3513 11.4342 47.0703 11.1686V39.2868Z" fill="#0F4D52"/>
<path d="M33.8644 37.4831C34.0098 37.4831 34.1579 37.4612 34.304 37.4153C36.9485 36.5839 39.8029 36.0235 42.7877 35.7495C43.5934 35.6754 44.1865 34.9624 44.1125 34.1568C44.0385 33.3512 43.3253 32.7568 42.5198 32.832C39.3279 33.125 36.2681 33.7268 33.4254 34.6205C32.6536 34.863 32.2246 35.6854 32.4672 36.4572C32.664 37.0828 33.2415 37.4831 33.8644 37.4831Z" fill="#0F4D52"/>
<path d="M33.8644 31.7075C34.0098 31.7075 34.1578 31.6856 34.304 31.6397C36.949 30.8084 39.8033 30.2479 42.7877 29.9739C43.5934 29.8999 44.1865 29.1868 44.1125 28.3813C44.0385 27.5756 43.3253 26.9821 42.5198 27.0565C39.3284 27.3495 36.2687 27.9512 33.4254 28.8449C32.6537 29.0874 32.2246 29.9098 32.4672 30.6816C32.664 31.3071 33.2415 31.7075 33.8644 31.7075Z" fill="#0F4D52"/>
<path d="M32.9976 25.0619C33.252 25.2486 33.5563 25.3458 33.8644 25.3458C34.0115 25.3458 34.1596 25.3235 34.3035 25.2784C36.9485 24.447 39.8028 23.8866 42.7872 23.6126C43.5412 23.5433 44.1182 22.9109 44.1182 22.1538V16.7689C44.1182 16.3571 43.9449 15.9644 43.6406 15.6868C43.3364 15.4091 42.9295 15.2726 42.5194 15.3102C39.3278 15.6032 36.2681 16.2048 33.425 17.0986C32.8146 17.2905 32.3994 17.8562 32.3994 18.4961V23.8809C32.3994 24.3473 32.6215 24.7859 32.9976 25.0619ZM35.3291 19.5877C37.1954 19.0606 39.1575 18.664 41.1885 18.4034V20.8361C39.169 21.0788 37.2085 21.4473 35.3291 21.937V19.5877Z" fill="url(#paint0_linear_407_9553)"/>
</g>
<defs>
<linearGradient id="paint0_linear_407_9553" x1="31.0297" y1="15.3041" x2="45.8196" y2="16.4212" gradientUnits="userSpaceOnUse">
<stop stop-color="#FC9102"/>
<stop offset="1" stop-color="#FFA32E"/>
</linearGradient>
<clipPath id="clip0_407_9553">
<rect width="50" height="50" fill="white"/>
</clipPath>
</defs>
</svg>
