<svg width="50" height="50" viewBox="0 0 50 50" fill="none" xmlns="http://www.w3.org/2000/svg">
<g clip-path="url(#clip0_407_9592)">
<path d="M49.5709 39.2128C48.8239 38.4658 36.1545 25.7964 35.3579 25L48.7003 11.6575C50.4168 9.94103 50.426 7.16828 48.7071 5.44964L44.5497 1.29243C42.8403 -0.41704 40.0576 -0.416063 38.3469 1.29477L25 14.6419C24.6949 14.3368 11.9481 1.59008 10.7871 0.429051C10.2151 -0.143017 9.2876 -0.143017 8.71553 0.429051L0.429132 8.71535C-0.142937 9.28742 -0.142937 10.2149 0.429132 10.7869L14.6421 24.9999L4.67004 34.9719C4.50929 35.1327 4.38801 35.3287 4.31613 35.5444L0.0752265 48.0717C-0.100261 48.5981 0.03675 49.1785 0.429132 49.5708C0.822099 49.9636 1.40257 50.0999 1.92815 49.9247L14.4554 45.6838C14.6711 45.6119 14.8672 45.4907 15.0279 45.3299L25 35.3578L39.2129 49.5708C39.7845 50.1424 40.7126 50.1427 41.2845 49.5708L49.5709 41.2844C50.143 40.7123 50.143 39.7849 49.5709 39.2128ZM40.4185 3.36634C40.9869 2.79799 41.9107 2.79672 42.4781 3.3641L46.6357 7.52141C47.2069 8.0926 47.2026 9.01203 46.6288 9.58595L44.557 11.6577L38.3422 5.4429L40.4185 3.36634ZM36.2705 7.51438L42.4854 13.7293L40.4139 15.8009L34.199 9.58605L36.2705 7.51438ZM3.53654 9.75118L9.75137 3.53636L13.8945 7.67961L12.8588 8.71545C12.2867 9.28751 12.2867 10.215 12.8588 10.787C13.4308 11.3591 14.3583 11.3591 14.9304 10.787L15.9661 9.75118L18.0378 11.8229L17.0019 12.8586C16.4299 13.4307 16.4299 14.3581 17.0019 14.9302C17.5739 15.5022 18.5014 15.5022 19.0735 14.9302L20.1092 13.8943L22.9283 16.7134L16.7136 22.9282L3.53654 9.75118ZM32.1273 11.6575L34.1989 13.7292L9.84893 38.0793L7.77735 36.0077C8.59151 35.1936 30.9308 12.8541 32.1273 11.6575ZM3.78107 46.2188L6.34601 38.7194C6.78976 39.1632 10.3848 42.7582 11.2805 43.6539L3.78107 46.2188ZM13.9922 42.2225L11.9206 40.151L36.2706 15.8009L38.3423 17.8725C37.7653 18.4494 14.2591 41.9557 13.9922 42.2225ZM40.2487 46.4634L27.0716 33.2863L33.2864 27.0714L36.1055 29.8906L35.0697 30.9264C34.4977 31.4985 34.4977 32.4259 35.0697 32.998C35.6417 33.57 36.5693 33.57 37.1413 32.998L38.1771 31.9621L40.2487 34.0338L39.213 35.0696C38.6409 35.6417 38.6409 36.5692 39.213 37.1412C39.785 37.7133 40.7125 37.7133 41.2846 37.1412L42.3203 36.1054L46.4636 40.2486L40.2487 46.4634Z" fill="#0F4D52"/>
<rect x="9.88574" y="38.0488" width="34.4675" height="2.97767" transform="rotate(-45 9.88574 38.0488)" fill="url(#paint0_linear_407_9592)"/>
</g>
<defs>
<linearGradient id="paint0_linear_407_9592" x1="5.85708" y1="38.0488" x2="33.8773" y2="59.0419" gradientUnits="userSpaceOnUse">
<stop stop-color="#FC9102"/>
<stop offset="1" stop-color="#FFA32E"/>
</linearGradient>
<clipPath id="clip0_407_9592">
<rect width="50" height="50" fill="white"/>
</clipPath>
</defs>
</svg>
