<svg width="80" height="80" viewBox="0 0 80 80" fill="none" xmlns="http://www.w3.org/2000/svg">
<path d="M69.991 37.5787H69.6865V19.087C69.6865 16.7301 68.7687 14.5144 67.1021 12.8476L56.8391 2.58439C55.1722 0.917816 52.9564 0 50.5996 0H19.1385C14.273 0 10.3146 3.9583 10.3146 8.82394V37.5787H10.01C6.74563 37.5787 4.08984 40.2345 4.08984 43.4989V63.1646C4.08984 66.429 6.74563 69.0848 10.01 69.0848H10.3146V71.1759C10.3146 76.0414 14.2729 79.9997 19.1385 79.9997H60.8627C65.7282 79.9997 69.6865 76.0414 69.6865 71.1759V69.0848H69.991C73.2554 69.0848 75.9112 66.429 75.9112 63.1646V43.4992C75.9112 40.2347 73.2554 37.5787 69.991 37.5787ZM55.471 7.84394L62.3112 14.6843H55.9949C55.7058 14.6843 55.471 14.4491 55.471 14.1604V7.84394ZM15.001 8.82394C15.001 6.54237 16.8569 4.68642 19.1385 4.68642H50.5996C50.6614 4.68642 50.723 4.6883 50.7846 4.69096V14.1602C50.7846 17.0333 53.1221 19.3705 55.9949 19.3705H65.0001V37.5787H15.001V8.82394ZM60.8627 75.3137H19.1385C16.8571 75.3137 15.001 73.4578 15.001 71.1764V69.0853H64.9999V71.1764H65.0001C65.0001 73.4578 63.1441 75.3137 60.8627 75.3137ZM71.2248 63.1649C71.2248 63.8452 70.6714 64.3987 69.991 64.3987H67.3448C67.3443 64.3987 67.3438 64.3987 67.3432 64.3987C67.3426 64.3987 67.3423 64.3987 67.3417 64.3987H12.6593C12.6588 64.3987 12.6583 64.3987 12.6577 64.3987C12.6571 64.3987 12.6568 64.3987 12.6561 64.3987H10.0099C9.32955 64.3987 8.77611 63.8452 8.77611 63.1649V43.4992C8.77611 42.8189 9.32955 42.2655 10.0099 42.2655H69.991C70.6714 42.2655 71.2248 42.8189 71.2248 43.4992V63.1649Z" fill="#0F4D52"/>
<path d="M30.548 45.9643C29.4723 45.0493 28.0356 44.5918 26.238 44.5918H21.9762C21.4947 44.5918 21.1011 44.7043 20.7964 44.9288C20.4912 45.1538 20.3389 45.4187 20.3389 45.7234V61.0614C20.3389 61.3667 20.4914 61.6314 20.7964 61.8561C21.1012 62.0811 21.4947 62.1931 21.9762 62.1931H26.2381C28.0356 62.1931 29.4725 61.7356 30.5481 60.8206C31.6233 59.9056 32.1614 58.4692 32.1614 56.5106V50.2743C32.1613 48.3162 31.6233 46.8795 30.548 45.9643ZM28.405 56.5107C28.405 58.1161 27.6826 58.9187 26.238 58.9187H24.095V47.8667H26.238C27.6826 47.8667 28.405 48.6696 28.405 50.2746V56.5107Z" fill="#0F4D52"/>
<path d="M44.562 45.9643C43.4863 45.0493 42.0494 44.5918 40.2518 44.5918C38.4701 44.5918 37.0411 45.0493 35.9658 45.9643C34.8902 46.8793 34.3525 48.3162 34.3525 50.2743V56.6551C34.3525 58.6137 34.89 60.0501 35.9658 60.9651C37.041 61.8801 38.4699 62.3376 40.2518 62.3376C42.0493 62.3376 43.4862 61.8801 44.562 60.9651C45.6371 60.0501 46.1751 58.6137 46.1751 56.6551V50.2743C46.1752 48.3162 45.6371 46.8795 44.562 45.9643ZM42.419 56.6553C42.419 58.2606 41.6966 59.0633 40.2519 59.0633C38.823 59.0633 38.109 58.2608 38.109 56.6553V50.2745C38.109 48.6695 38.823 47.8665 40.2519 47.8665C41.6966 47.8665 42.419 48.6695 42.419 50.2745V56.6553Z" fill="#0F4D52"/>
<path d="M58.3102 55.5232C57.1383 55.5232 56.5202 55.9006 56.4562 56.655C56.4239 56.9922 56.3878 57.257 56.348 57.4495C56.3077 57.6422 56.2233 57.887 56.0952 58.1839C55.9664 58.4811 55.7537 58.7015 55.457 58.8461C55.1598 58.9906 54.7866 59.0628 54.3375 59.0628C52.8765 59.0628 52.1462 58.2603 52.1462 56.6548V50.274C52.1461 48.6692 52.8686 47.8663 54.3133 47.8663C55.6936 47.8663 56.4081 48.5887 56.4562 50.0334C56.5045 50.7882 57.1303 51.1651 58.3342 51.1651C59.0084 51.1651 59.4899 51.0409 59.7789 50.792C60.068 50.5432 60.2124 50.0737 60.2124 49.3834C60.2124 47.8906 59.6464 46.719 58.5147 45.8679C57.3831 45.0173 55.9341 44.5918 54.1686 44.5918C52.4506 44.5918 51.0583 45.0493 49.9909 45.9643C48.9232 46.8793 48.3896 48.3162 48.3896 50.2743V56.6551C48.3896 58.6137 48.9232 60.0501 49.9909 60.9651C51.0583 61.8801 52.4506 62.3377 54.1686 62.3377C55.9341 62.3377 57.383 61.8886 58.5147 60.9892C59.6463 60.0905 60.2124 58.8625 60.2124 57.3051C60.2124 56.6151 60.0677 56.1456 59.7789 55.8965C59.4899 55.6478 59.0003 55.5232 58.3102 55.5232Z" fill="#0F4D52"/>
</svg>
