<svg width="84" height="100" viewBox="0 0 84 100" fill="none" xmlns="http://www.w3.org/2000/svg">
<path d="M73.4758 0H24.1354C18.6596 0 14.2049 4.20566 14.2049 9.375V12.5H7.37988C3.63789 12.5 0.59375 15.5441 0.59375 19.2861V93.2139C0.59375 96.9559 3.63789 100 7.37988 100H63.009C66.751 100 69.7951 96.9559 69.7951 93.2139V87.5H73.4758C78.9514 87.5 83.4062 83.2943 83.4062 78.125V9.375C83.4062 4.20566 78.9514 0 73.4758 0ZM63.5451 93.2139C63.5451 93.5096 63.3047 93.75 63.009 93.75H7.37988C7.08418 93.75 6.84375 93.5096 6.84375 93.2139V19.2861C6.84375 18.9904 7.08418 18.75 7.37988 18.75H63.009C63.3047 18.75 63.5451 18.9904 63.5451 19.2861V93.2139ZM77.1562 78.125C77.1562 79.848 75.5051 81.25 73.4758 81.25H69.7951V19.2861C69.7951 15.5441 66.751 12.5 63.009 12.5H20.4549V9.375C20.4549 7.65195 22.1061 6.25 24.1354 6.25H73.4758C75.5051 6.25 77.1562 7.65195 77.1562 9.375V78.125Z" fill="#0F4D52"/>
</svg>
