<svg width="10" height="12" viewBox="0 0 10 12" fill="none" xmlns="http://www.w3.org/2000/svg">
<path fill-rule="evenodd" clip-rule="evenodd" d="M9.66635 1.33366C9.66635 0.965658 9.36768 0.666992 8.99968 0.666992H6.33301C5.96501 0.666992 5.66635 0.965658 5.66635 1.33366V10.667C5.66635 11.035 5.96501 11.3336 6.33301 11.3336H8.99968C9.36768 11.3336 9.66635 11.035 9.66635 10.667V1.33366ZM4.33301 1.33366C4.33301 0.965658 4.03434 0.666992 3.66634 0.666992H0.999675C0.631675 0.666992 0.333008 0.965658 0.333008 1.33366V10.667C0.333008 11.035 0.631675 11.3336 0.999675 11.3336H3.66634C4.03434 11.3336 4.33301 11.035 4.33301 10.667V1.33366ZM6.99968 2.00032V10.0003H8.33302V2.00032H6.99968ZM1.66634 2.00032V10.0003H2.99968V2.00032H1.66634Z" fill="white"/>
</svg>
