<svg width="50" height="50" viewBox="0 0 50 50" fill="none" xmlns="http://www.w3.org/2000/svg">
<g clip-path="url(#clip0_407_9615)">
<path d="M46.582 21.6796H34.1797V3.41785C34.1797 1.53015 32.6494 -0.00012207 30.7617 -0.00012207H3.41797C1.53027 -0.00012207 0 1.53015 0 3.41785V32.91C0 34.1685 1.48232 34.8412 2.42949 34.0125L9.82773 27.5389H19.7266V42.0689L14.2963 47.4992C13.8773 47.9181 13.7521 48.5481 13.9787 49.0956C14.2055 49.6429 14.7396 49.9999 15.332 49.9999H46.582C48.4667 49.9999 50 48.4666 50 46.5819V25.0975C50 23.2129 48.4667 21.6796 46.582 21.6796ZM9.27734 24.6093C8.92256 24.6093 8.57979 24.7381 8.31279 24.9717L2.92969 29.6818V3.41785C2.92969 3.14822 3.14834 2.92957 3.41797 2.92957H30.7617C31.0313 2.92957 31.25 3.14822 31.25 3.41785V24.121C31.25 24.3906 31.0313 24.6093 30.7617 24.6093H9.27734ZM47.0703 46.5819C47.0703 46.8511 46.8513 47.0702 46.582 47.0702H18.8685L22.2272 43.7114C22.502 43.4368 22.6562 43.0642 22.6562 42.6757V27.5389H30.7617C32.4836 27.5389 33.9074 26.2655 34.1444 24.6093H46.582C46.8513 24.6093 47.0703 24.8283 47.0703 25.0975V46.5819Z" fill="#0F4D52"/>
<path d="M36.4992 30.6043C36.4916 30.584 36.4834 30.5641 36.4749 30.5444C36.1985 29.9015 35.5573 29.4921 34.8575 29.4921C34.2079 29.4921 33.6173 29.8655 33.3348 30.4505C33.3089 30.5041 33.2868 30.5514 33.2682 30.6006L28.8678 42.1543C28.5798 42.9103 28.9593 43.7566 29.7154 44.0445C30.4714 44.3324 31.3177 43.953 31.6056 43.197L32.3422 41.2629H37.3901L38.1184 43.1928C38.404 43.9497 39.2493 44.3317 40.0061 44.046C40.7629 43.7603 41.145 42.9152 40.8594 42.1583L36.4992 30.6043ZM33.4582 38.3333L34.8779 34.6057L36.2846 38.3333H33.4582Z" fill="#0F4D52"/>
<path d="M22.9492 11.8163C23.7582 11.8163 24.4141 11.1604 24.4141 10.3514C24.4141 9.54246 23.7582 8.8866 22.9492 8.8866H18.5547V7.42175C18.5547 6.61277 17.8988 5.95691 17.0898 5.95691C16.2809 5.95691 15.625 6.61277 15.625 7.42175V8.8866H11.2305C10.4215 8.8866 9.76562 9.54246 9.76562 10.3514C9.76562 11.1604 10.4215 11.8163 11.2305 11.8163H11.8143C12.1192 14.147 13.1414 16.2552 14.6516 17.9114C13.6076 18.3857 12.4499 18.6522 11.2305 18.6522C10.4215 18.6522 9.76562 19.3081 9.76562 20.1171C9.76562 20.9261 10.4215 21.5819 11.2305 21.5819C13.3762 21.5819 15.3829 20.9766 17.0898 19.9285C18.7968 20.9766 20.8035 21.5819 22.9492 21.5819C23.7582 21.5819 24.4141 20.9261 24.4141 20.1171C24.4141 19.3081 23.7582 18.6522 22.9492 18.6522C21.7298 18.6522 20.5721 18.3857 19.5281 17.9114C21.0383 16.2552 22.0605 14.147 22.3654 11.8163H22.9492ZM17.0898 16.2253C15.9113 15.0496 15.0856 13.522 14.7805 11.8163H19.3991C19.094 13.522 18.2684 15.0497 17.0898 16.2253Z" fill="url(#paint0_linear_407_9615)"/>
<path d="M11.3281 41.1132H6.93359V36.7186C6.93359 35.9096 6.27773 35.2538 5.46875 35.2538C4.65977 35.2538 4.00391 35.9096 4.00391 36.7186V42.578C4.00391 43.387 4.65977 44.0428 5.46875 44.0428H11.3281C12.1371 44.0428 12.793 43.387 12.793 42.578C12.793 41.769 12.1371 41.1132 11.3281 41.1132Z" fill="#0F4D52"/>
<path d="M38.6719 8.8866H43.0664V13.2811C43.0664 14.0901 43.7223 14.746 44.5312 14.746C45.3402 14.746 45.9961 14.0901 45.9961 13.2811V7.42175C45.9961 6.61277 45.3402 5.95691 44.5312 5.95691H38.6719C37.8629 5.95691 37.207 6.61277 37.207 7.42175C37.207 8.23074 37.8629 8.8866 38.6719 8.8866Z" fill="#0F4D52"/>
</g>
<defs>
<linearGradient id="paint0_linear_407_9615" x1="8.05347" y1="5.95691" x2="26.5781" y2="7.08098" gradientUnits="userSpaceOnUse">
<stop stop-color="#FC9102"/>
<stop offset="1" stop-color="#FFA32E"/>
</linearGradient>
<clipPath id="clip0_407_9615">
<rect width="50" height="50" fill="white" transform="translate(0 -0.00012207)"/>
</clipPath>
</defs>
</svg>
