<svg width="14" height="18" viewBox="0 0 14 18" fill="none" xmlns="http://www.w3.org/2000/svg">
<path d="M7.83268 16.5003C7.83268 16.9605 7.45958 17.3336 6.99935 17.3336C6.53911 17.3336 6.16602 16.9605 6.16602 16.5003V14.0003C6.16602 13.5401 6.53911 13.167 6.99935 13.167C7.45958 13.167 7.83268 13.5401 7.83268 14.0003V16.5003Z" fill="white"/>
<path d="M6.99967 2.33366C5.61896 2.33366 4.49967 3.45295 4.49967 4.83366V8.167C4.49967 9.54771 5.61896 10.667 6.99967 10.667C8.38038 10.667 9.49966 9.54771 9.49966 8.167V4.83366C9.49966 3.45295 8.38038 2.33366 6.99967 2.33366ZM6.99967 0.666992C9.30085 0.666992 11.1663 2.53247 11.1663 4.83366V8.167C11.1663 10.4682 9.30085 12.3337 6.99967 12.3337C4.69848 12.3337 2.83301 10.4682 2.83301 8.167V4.83366C2.83301 2.53247 4.69848 0.666992 6.99967 0.666992Z" fill="white"/>
<path d="M11.9997 8.16732C11.9997 7.70708 12.3728 7.33398 12.833 7.33398C13.2932 7.33398 13.6663 7.70708 13.6663 8.16732C13.6663 11.8492 10.6816 14.834 6.99967 14.834C3.31777 14.834 0.333008 11.8492 0.333008 8.16732C0.333008 7.70708 0.706103 7.33398 1.16634 7.33398C1.62658 7.33398 1.99967 7.70708 1.99967 8.16732C1.99967 10.9287 4.23825 13.1673 6.99967 13.1673C9.76109 13.1673 11.9997 10.9287 11.9997 8.16732Z" fill="white"/>
</svg>
