<svg width="50" height="50" viewBox="0 0 50 50" fill="none" xmlns="http://www.w3.org/2000/svg">
<path d="M16.1172 38.2813C14.7543 38.2813 14.0399 39.2222 13.6175 40.0388C13.6146 40.0173 13.6116 39.9961 13.6088 39.9755C13.4907 39.1196 13.3567 38.1496 13.0152 37.333C12.2941 35.609 10.9781 35.3516 10.2578 35.3516C9.02236 35.3516 7.3543 36.0451 6.42363 39.3489C5.97402 40.9449 5.87041 42.517 5.86621 42.5831L8.78994 42.7684C8.79082 42.7553 8.87725 41.4436 9.24355 40.1432C9.61289 38.8319 10.0496 38.3395 10.2275 38.2861C10.464 38.6182 10.6204 39.7519 10.7065 40.3759C10.8022 41.0695 10.8927 41.7247 11.0816 42.3042C11.4437 43.4144 12.189 44.1559 13.3691 44.1559C14.0854 44.1559 14.7337 43.8443 15.2254 43.2548C15.7645 42.6085 15.9773 41.8232 16.27 41.2806C16.6721 41.5302 17.3762 42.3886 17.8244 43.3107L20.4645 42.0407C20.1626 41.413 18.5337 38.2813 16.1172 38.2813Z" fill="url(#paint0_linear_407_9545)"/>
<path d="M42.4089 8.579C41.1382 9.48652 39.744 10.592 38.2852 11.8432V0H9.64639L0.00390625 9.74951V50H38.2852V23.8829C38.5379 23.6351 38.7907 23.3851 39.0435 23.1323C42.4187 19.757 45.3802 16.3547 47.3819 13.5521C48.9878 11.3041 51.0225 8.18066 49.4016 6.55957C47.7619 4.91982 44.6285 6.99355 42.4089 8.579ZM28.618 28.4572C27.1046 29.5968 26.0418 30.2568 25.3221 30.6389C25.7041 29.9191 26.3641 28.8564 27.5037 27.343C29.1599 25.1436 31.3926 22.5826 33.8718 20.0323L35.9285 22.0891C33.3783 24.5683 30.8174 26.801 28.618 28.4572ZM8.79297 5.0291V8.88672H4.97773L8.79297 5.0291ZM35.3555 47.0703H2.93359V11.8164H11.7227V2.92969H35.3555V14.4721C34.5181 15.2557 33.6725 16.0736 32.8286 16.9176C29.4533 20.2929 26.4919 23.6952 24.4901 26.4978C23.4964 27.889 21.8225 30.3512 21.8667 32.0228L19.3633 34.5262L21.4349 36.5978L23.938 34.0946C23.9628 34.0953 23.9876 34.096 24.0123 34.096C25.6724 34.096 28.0969 32.4469 29.4633 31.4709C31.2396 30.2021 33.2569 28.5476 35.3555 26.6468V47.0703ZM44.3684 12.7068C42.7122 14.9062 40.4794 17.4672 38.0002 20.0175L35.9435 17.9607C38.4938 15.4815 41.0548 13.2488 43.2541 11.5927C44.7676 10.453 45.8303 9.79307 46.5499 9.41104C46.168 10.1307 45.5079 11.1935 44.3684 12.7068Z" fill="#0F4D52"/>
<path d="M5.86328 14.7461H20.707V17.6758H5.86328V14.7461Z" fill="#0F4D52"/>
<path d="M5.86328 20.6055H14.6523V23.5352H5.86328V20.6055Z" fill="#0F4D52"/>
<path d="M5.86328 26.4648H14.6523V29.3945H5.86328V26.4648Z" fill="#0F4D52"/>
<defs>
<linearGradient id="paint0_linear_407_9545" x1="4.15992" y1="35.3516" x2="22.4781" y2="37.3175" gradientUnits="userSpaceOnUse">
<stop stop-color="#FC9102"/>
<stop offset="1" stop-color="#FFA32E"/>
</linearGradient>
</defs>
</svg>
