<svg width="20" height="20" viewBox="0 0 20 20" fill="none" xmlns="http://www.w3.org/2000/svg">
<path d="M15.834 5.83325C15.613 5.83325 15.401 5.92105 15.2447 6.07733C15.0884 6.23361 15.0006 6.44557 15.0006 6.66659V15.9924C14.9767 16.4138 14.7873 16.8087 14.4735 17.0911C14.1598 17.3734 13.7472 17.5204 13.3256 17.4999H6.67565C6.25406 17.5204 5.84147 17.3734 5.52774 17.0911C5.214 16.8087 5.02455 16.4138 5.00065 15.9924V6.66659C5.00065 6.44557 4.91285 6.23361 4.75657 6.07733C4.60029 5.92105 4.38833 5.83325 4.16732 5.83325C3.9463 5.83325 3.73434 5.92105 3.57806 6.07733C3.42178 6.23361 3.33398 6.44557 3.33398 6.66659V15.9924C3.35777 16.856 3.7228 17.6749 4.34913 18.2698C4.97546 18.8647 5.81204 19.1872 6.67565 19.1666H13.3256C14.1892 19.1872 15.0258 18.8647 15.6522 18.2698C16.2785 17.6749 16.6435 16.856 16.6673 15.9924V6.66659C16.6673 6.44557 16.5795 6.23361 16.4232 6.07733C16.2669 5.92105 16.055 5.83325 15.834 5.83325Z" fill="url(#paint0_linear_523_13508)"/>
<path d="M16.6667 3.33325H13.3333V1.66658C13.3333 1.44557 13.2455 1.23361 13.0892 1.07733C12.933 0.921049 12.721 0.833252 12.5 0.833252H7.5C7.27898 0.833252 7.06702 0.921049 6.91074 1.07733C6.75446 1.23361 6.66666 1.44557 6.66666 1.66658V3.33325H3.33333C3.11232 3.33325 2.90036 3.42105 2.74408 3.57733C2.5878 3.73361 2.5 3.94557 2.5 4.16658C2.5 4.3876 2.5878 4.59956 2.74408 4.75584C2.90036 4.91212 3.11232 4.99992 3.33333 4.99992H16.6667C16.8877 4.99992 17.0996 4.91212 17.2559 4.75584C17.4122 4.59956 17.5 4.3876 17.5 4.16658C17.5 3.94557 17.4122 3.73361 17.2559 3.57733C17.0996 3.42105 16.8877 3.33325 16.6667 3.33325ZM8.33333 3.33325V2.49992H11.6667V3.33325H8.33333Z" fill="url(#paint1_linear_523_13508)"/>
<path d="M9.16666 14.1667V8.33333C9.16666 8.11232 9.07886 7.90036 8.92259 7.74408C8.76631 7.5878 8.55434 7.5 8.33333 7.5C8.11232 7.5 7.90036 7.5878 7.74408 7.74408C7.5878 7.90036 7.5 8.11232 7.5 8.33333V14.1667C7.5 14.3877 7.5878 14.5996 7.74408 14.7559C7.90036 14.9122 8.11232 15 8.33333 15C8.55434 15 8.76631 14.9122 8.92259 14.7559C9.07886 14.5996 9.16666 14.3877 9.16666 14.1667Z" fill="url(#paint2_linear_523_13508)"/>
<path d="M12.5007 14.1667V8.33333C12.5007 8.11232 12.4129 7.90036 12.2566 7.74408C12.1003 7.5878 11.8883 7.5 11.6673 7.5C11.4463 7.5 11.2343 7.5878 11.0781 7.74408C10.9218 7.90036 10.834 8.11232 10.834 8.33333V14.1667C10.834 14.3877 10.9218 14.5996 11.0781 14.7559C11.2343 14.9122 11.4463 15 11.6673 15C11.8883 15 12.1003 14.9122 12.2566 14.7559C12.4129 14.5996 12.5007 14.3877 12.5007 14.1667Z" fill="url(#paint3_linear_523_13508)"/>
<defs>
<linearGradient id="paint0_linear_523_13508" x1="0.909746" y1="15.834" x2="11.0661" y2="2.69894" gradientUnits="userSpaceOnUse">
<stop stop-color="#FF6056"/>
<stop offset="1" stop-color="#FD3F61"/>
</linearGradient>
<linearGradient id="paint1_linear_523_13508" x1="-0.22727" y1="3.95825" x2="1.11916" y2="-2.31092" gradientUnits="userSpaceOnUse">
<stop stop-color="#FF6056"/>
<stop offset="1" stop-color="#FD3F61"/>
</linearGradient>
<linearGradient id="paint2_linear_523_13508" x1="7.19697" y1="13.125" x2="10.331" y2="12.2242" gradientUnits="userSpaceOnUse">
<stop stop-color="#FF6056"/>
<stop offset="1" stop-color="#FD3F61"/>
</linearGradient>
<linearGradient id="paint3_linear_523_13508" x1="10.531" y1="13.125" x2="13.665" y2="12.2242" gradientUnits="userSpaceOnUse">
<stop stop-color="#FF6056"/>
<stop offset="1" stop-color="#FD3F61"/>
</linearGradient>
</defs>
</svg>
