<svg width="50" height="50" viewBox="0 0 50 50" fill="none" xmlns="http://www.w3.org/2000/svg">
<path d="M42.6758 40.0391H32.9102C32.1012 40.0391 31.4453 40.6949 31.4453 41.5039C31.4453 42.3129 32.1012 42.9688 32.9102 42.9688H42.6758C43.4848 42.9688 44.1406 42.3129 44.1406 41.5039C44.1406 40.6949 43.4848 40.0391 42.6758 40.0391Z" fill="#0F4D52"/>
<path d="M42.6758 34.1797H32.9102C32.1012 34.1797 31.4453 34.8355 31.4453 35.6445C31.4453 36.4535 32.1012 37.1094 32.9102 37.1094H42.6758C43.4848 37.1094 44.1406 36.4535 44.1406 35.6445C44.1406 34.8355 43.4848 34.1797 42.6758 34.1797Z" fill="#0F4D52"/>
<path d="M42.6758 28.3203H23.1445C22.3355 28.3203 21.6797 28.9762 21.6797 29.7852C21.6797 30.5941 22.3355 31.25 23.1445 31.25H42.6758C43.4848 31.25 44.1406 30.5941 44.1406 29.7852C44.1406 28.9762 43.4848 28.3203 42.6758 28.3203Z" fill="#0F4D52"/>
<path d="M42.6758 22.4609H23.1445C22.3355 22.4609 21.6797 23.1168 21.6797 23.9258C21.6797 24.7348 22.3355 25.3906 23.1445 25.3906H42.6758C43.4848 25.3906 44.1406 24.7348 44.1406 23.9258C44.1406 23.1168 43.4848 22.4609 42.6758 22.4609Z" fill="#0F4D52"/>
<path d="M42.6758 16.6016H34.8633C34.0543 16.6016 33.3984 17.2574 33.3984 18.0664C33.3984 18.8754 34.0543 19.5312 34.8633 19.5312H42.6758C43.4848 19.5312 44.1406 18.8754 44.1406 18.0664C44.1406 17.2574 43.4848 16.6016 42.6758 16.6016Z" fill="#0F4D52"/>
<path d="M49.5709 10.1947L39.8053 0.429102C39.5306 0.154395 39.158 0 38.7695 0H15.332C14.523 0 13.8672 0.655859 13.8672 1.46484V17.9951C13.3377 17.8515 12.7814 17.7734 12.207 17.7734C8.70693 17.7734 5.85938 20.621 5.85938 24.1211C5.85938 24.8496 5.92012 25.5833 6.03984 26.3018L7.54814 35.3516H5.37109C2.40947 35.3516 0 37.761 0 40.7227V42.6758C0 43.4848 0.655859 44.1406 1.46484 44.1406H1.95312V48.5352C1.95312 49.3441 2.60898 50 3.41797 50H48.5352C49.3441 50 50 49.3441 50 48.5352V11.2305C50 10.842 49.8456 10.4694 49.5709 10.1947ZM40.2344 5.00127L44.9987 9.76562H40.2344V5.00127ZM8.92969 25.82C8.83633 25.2604 8.78906 24.6887 8.78906 24.1211C8.78906 22.2364 10.3224 20.7031 12.207 20.7031C14.0917 20.7031 15.625 22.2364 15.625 24.1211C15.625 24.6887 15.5777 25.2604 15.4844 25.8201L13.8958 35.3516H10.5183L8.92969 25.82ZM2.92969 40.7227C2.92969 39.3765 4.0249 38.2812 5.37109 38.2812H19.043C20.3892 38.2812 21.4844 39.3765 21.4844 40.7227V41.2109H2.92969V40.7227ZM4.88281 47.0703V44.1406H19.5312V47.0703H4.88281ZM22.4609 47.0703V44.1406H22.9492C23.7582 44.1406 24.4141 43.4848 24.4141 42.6758V40.7227C24.4141 37.761 22.0046 35.3516 19.043 35.3516H16.8659L18.3742 26.3018C18.4939 25.5833 18.5547 24.8496 18.5547 24.1211C18.5547 22.4248 17.8846 20.8831 16.7969 19.7433V2.92969H37.3047V11.2305C37.3047 12.0395 37.9605 12.6953 38.7695 12.6953H47.0703V47.0703H22.4609Z" fill="#0F4D52"/>
<path d="M31.4453 11.7188C31.4453 8.48789 28.8168 5.85938 25.5859 5.85938C22.3551 5.85938 19.7266 8.48789 19.7266 11.7188C19.7266 14.9496 22.3551 17.5781 25.5859 17.5781C28.8168 17.5781 31.4453 14.9496 31.4453 11.7188ZM22.6562 11.7188C22.6562 10.1033 23.9705 8.78906 25.5859 8.78906C27.2014 8.78906 28.5156 10.1033 28.5156 11.7188C28.5156 13.3342 27.2014 14.6484 25.5859 14.6484C23.9705 14.6484 22.6562 13.3342 22.6562 11.7188Z" fill="url(#paint0_linear_407_9564)"/>
<defs>
<linearGradient id="paint0_linear_407_9564" x1="18.3568" y1="5.85937" x2="33.169" y2="6.81809" gradientUnits="userSpaceOnUse">
<stop stop-color="#FC9102"/>
<stop offset="1" stop-color="#FFA32E"/>
</linearGradient>
</defs>
</svg>
