<svg width="108" height="108" viewBox="0 0 108 108" fill="none" xmlns="http://www.w3.org/2000/svg">
<g filter="url(#filter0_d_387_9453)">
<path d="M88.8672 0H10.7422C4.81895 0 0 4.81895 0 10.7422V77.3438C0 83.267 4.81895 88.0859 10.7422 88.0859H11.7188V97.0703C11.7188 98.6883 13.0305 100 14.6484 100C16.2664 100 17.5781 98.6883 17.5781 97.0703V47.0703H41.0156V52.9297H32.2266C30.6086 52.9297 29.2969 54.2414 29.2969 55.8594C29.2969 57.4773 30.6086 58.7891 32.2266 58.7891H41.0156V64.6484H26.3672C24.7492 64.6484 23.4375 65.9602 23.4375 67.5781C23.4375 69.1961 24.7492 70.5078 26.3672 70.5078H41.0156V76.3672H32.2266C30.6086 76.3672 29.2969 77.6789 29.2969 79.2969C29.2969 80.9148 30.6086 82.2266 32.2266 82.2266H41.0156V88.0859H26.3672C24.7492 88.0859 23.4375 89.3977 23.4375 91.0156C23.4375 92.6336 24.7492 93.9453 26.3672 93.9453H41.0156V97.0703C41.0156 98.6883 42.3273 100 43.9453 100C45.5633 100 46.875 98.6883 46.875 97.0703V88.0859H58.5938V97.0703C58.5938 98.6883 59.9055 100 61.5234 100C63.1414 100 64.4531 98.6883 64.4531 97.0703V64.6484H70.3125V97.0703C70.3125 98.6883 71.6242 100 73.2422 100C74.8602 100 76.1719 98.6883 76.1719 97.0703V64.6484H82.0312V97.0703C82.0312 98.6883 83.343 100 84.9609 100C86.5789 100 87.8906 98.6883 87.8906 97.0703V88.0859H88.8672C94.7904 88.0859 99.6094 83.267 99.6094 77.3438V10.7422C99.6094 4.81895 94.7904 0 88.8672 0ZM10.7422 5.85938H88.8672C91.5596 5.85938 93.75 8.0498 93.75 10.7422V23.6328H5.85938V10.7422C5.85938 8.0498 8.0498 5.85938 10.7422 5.85938ZM65.2752 58.7891L73.2422 48.8305L81.2092 58.7891H65.2752ZM88.8672 82.2266H87.8906V58.7891C87.8906 58.1238 87.6643 57.4783 87.2486 56.959L75.5299 42.3105C74.3582 40.8459 72.127 40.8451 70.9545 42.3105L59.2357 56.959C58.8201 57.4783 58.5938 58.1238 58.5938 58.7891V82.2266H46.875V44.1406C46.875 42.5227 45.5633 41.2109 43.9453 41.2109H14.6484C13.0305 41.2109 11.7188 42.5227 11.7188 44.1406V82.2266H10.7422C8.0498 82.2266 5.85938 80.0361 5.85938 77.3438V29.4922H93.75V77.3438C93.75 80.0361 91.5596 82.2266 88.8672 82.2266Z" fill="#0F4D52"/>
</g>
<defs>
<filter id="filter0_d_387_9453" x="0" y="0" width="107.609" height="108" filterUnits="userSpaceOnUse" color-interpolation-filters="sRGB">
<feFlood flood-opacity="0" result="BackgroundImageFix"/>
<feColorMatrix in="SourceAlpha" type="matrix" values="0 0 0 0 0 0 0 0 0 0 0 0 0 0 0 0 0 0 127 0" result="hardAlpha"/>
<feOffset dx="4" dy="4"/>
<feGaussianBlur stdDeviation="2"/>
<feComposite in2="hardAlpha" operator="out"/>
<feColorMatrix type="matrix" values="0 0 0 0 1 0 0 0 0 1 0 0 0 0 1 0 0 0 0.96 0"/>
<feBlend mode="normal" in2="BackgroundImageFix" result="effect1_dropShadow_387_9453"/>
<feBlend mode="normal" in="SourceGraphic" in2="effect1_dropShadow_387_9453" result="shape"/>
</filter>
</defs>
</svg>
