<svg width="20" height="20" viewBox="0 0 20 20" fill="none" xmlns="http://www.w3.org/2000/svg">
<g clip-path="url(#clip0_1128_2019)">
<path d="M17.9394 8.99403C18.2945 8.65444 18.8701 8.65444 19.2251 8.99403C19.5801 9.33361 19.5801 9.88419 19.2251 10.2238L10.8705 18.2151C8.3842 20.5933 4.35305 20.5933 1.86671 18.2151C-0.619632 15.8368 -0.619632 11.981 1.86671 9.60272L10.2213 1.61142C11.9972 -0.0872695 14.8765 -0.0872695 16.6524 1.61142C18.4283 3.3101 18.4283 6.06422 16.652 7.76324L8.28872 15.7542C7.22326 16.7733 5.49581 16.7733 4.43034 15.7542C3.36488 14.7351 3.36488 13.0827 4.43072 12.0632L12.1489 4.68932C12.5041 4.34993 13.0797 4.35026 13.4346 4.69004C13.7894 5.02983 13.789 5.58041 13.4338 5.91979L5.71599 13.2933C5.36058 13.6333 5.36058 14.1845 5.71599 14.5245C6.07141 14.8644 6.64765 14.8644 7.00342 14.5241L15.3667 6.53316C16.4326 5.51364 16.4326 3.86068 15.3667 2.84117C14.3009 1.82165 12.5728 1.82165 11.5069 2.84117L3.15236 10.8325C1.37606 12.5315 1.37606 15.2863 3.15236 16.9853C4.92865 18.6844 7.80859 18.6844 9.58489 16.9853L17.9394 8.99403Z" fill="#4D8C77"/>
</g>
<defs>
<clipPath id="clip0_1128_2019">
<rect width="20" height="20" fill="white"/>
</clipPath>
</defs>
</svg>
