<svg width="22" height="30" viewBox="0 0 22 30" fill="none" xmlns="http://www.w3.org/2000/svg">
<path d="M10.9999 30C17.0195 30.0056 21.904 25.1303 21.9096 19.1107C21.9127 15.7956 20.407 12.6593 17.8181 10.5887V6.81825C17.8181 3.05258 14.7655 0 10.9999 0C7.23431 0 4.18179 3.05258 4.18179 6.81819V10.5886C-0.519165 14.3486 -1.28198 21.2075 2.47795 25.9085C4.54858 28.4973 7.68485 30.0031 10.9999 30ZM6.90904 6.81819C6.90904 4.55885 8.74057 2.72725 11 2.72725C13.2594 2.72725 15.0909 4.55879 15.0909 6.81819V8.98503C12.4687 7.91419 9.53127 7.91419 6.9091 8.98503V6.81819H6.90904ZM10.9999 10.9091C15.5186 10.9091 19.1817 14.5722 19.1817 19.0909C19.1817 23.6096 15.5186 27.2727 10.9999 27.2727C6.48124 27.2727 2.81811 23.6096 2.81811 19.0909C2.82265 14.5741 6.48313 10.9136 10.9999 10.9091Z" fill="url(#paint0_linear_572_17645)"/>
<path d="M9.63559 20.0768V23.1818C9.63559 23.935 10.2461 24.5455 10.9992 24.5455C11.7524 24.5455 12.3628 23.9349 12.3628 23.1818V20.0768C13.6673 19.3237 14.1142 17.6557 13.3611 16.3513C12.608 15.0468 10.94 14.5999 9.63559 15.353C8.33114 16.1062 7.8842 17.7742 8.63734 19.0785C8.87672 19.4932 9.22101 19.8375 9.63559 20.0768Z" fill="url(#paint1_linear_572_17645)"/>
<defs>
<linearGradient id="paint0_linear_572_17645" x1="-2.46052" y1="-3.21219e-06" x2="25.1735" y2="1.3009" gradientUnits="userSpaceOnUse">
<stop stop-color="#66A882"/>
<stop offset="1" stop-color="#488774"/>
</linearGradient>
<linearGradient id="paint1_linear_572_17645" x1="7.63383" y1="14.9872" x2="14.5489" y2="15.2426" gradientUnits="userSpaceOnUse">
<stop stop-color="#66A882"/>
<stop offset="1" stop-color="#488774"/>
</linearGradient>
</defs>
</svg>
