<svg width="10" height="10" viewBox="0 0 10 10" fill="none" xmlns="http://www.w3.org/2000/svg">
<path d="M4.0956 8.19521C4.93881 8.19521 5.71778 7.93823 6.36826 7.50458L8.72122 9.85754C8.906 10.0422 9.21116 10.0422 9.40382 9.85754L9.86156 9.3998C10.0463 9.21509 10.0463 8.90993 9.86156 8.7172L7.50057 6.37227C7.93414 5.72179 8.1912 4.94282 8.1912 4.09961C8.1912 1.84302 6.35219 0.00401306 4.0956 0.00401306C1.839 0.00401306 0 1.84302 0 4.09961C0 6.35613 1.83097 8.19521 4.0956 8.19521ZM4.0956 1.61013C5.46883 1.61013 6.58508 2.72638 6.58508 4.09961C6.58508 5.47284 5.46883 6.58909 4.0956 6.58909C2.72237 6.58909 1.60612 5.47284 1.60612 4.09961C1.60612 2.72638 2.72237 1.61013 4.0956 1.61013Z" fill="black"/>
</svg>
