<svg width="16" height="16" viewBox="0 0 16 16" fill="none" xmlns="http://www.w3.org/2000/svg">
<path d="M8 0C3.5888 0 0 3.58885 0 8.00005C0 12.4112 3.5888 16 8 16C12.4112 16 16 12.4112 16 8.00005C16 3.58885 12.4112 0 8 0ZM8 14.5455C4.39079 14.5455 1.45455 11.6092 1.45455 8.00005C1.45455 4.39088 4.39079 1.45455 8 1.45455C11.6092 1.45455 14.5455 4.39088 14.5455 8.00005C14.5455 11.6092 11.6092 14.5455 8 14.5455Z" fill="url(#paint0_linear_544_16066)"/>
<path d="M7.99978 3.39355C7.46518 3.39355 7.03027 3.82875 7.03027 4.36369C7.03027 4.89814 7.46518 5.33295 7.99978 5.33295C8.53437 5.33295 8.96928 4.89814 8.96928 4.36369C8.96928 3.82875 8.53437 3.39355 7.99978 3.39355Z" fill="url(#paint1_linear_544_16066)"/>
<path d="M7.99973 6.78809C7.59809 6.78809 7.27246 7.11371 7.27246 7.51536V11.879C7.27246 12.2806 7.59809 12.6063 7.99973 12.6063C8.40138 12.6063 8.72701 12.2806 8.72701 11.879V7.51536C8.72701 7.11371 8.40138 6.78809 7.99973 6.78809Z" fill="url(#paint2_linear_544_16066)"/>
<defs>
<linearGradient id="paint0_linear_544_16066" x1="-1.87013" y1="-1.71317e-06" x2="18.3535" y2="1.30897" gradientUnits="userSpaceOnUse">
<stop stop-color="#FC9102"/>
<stop offset="1" stop-color="#FFA32E"/>
</linearGradient>
<linearGradient id="paint1_linear_544_16066" x1="6.80364" y1="3.39355" x2="9.2545" y2="3.55215" gradientUnits="userSpaceOnUse">
<stop stop-color="#FC9102"/>
<stop offset="1" stop-color="#FFA32E"/>
</linearGradient>
<linearGradient id="paint2_linear_544_16066" x1="7.10245" y1="6.78809" x2="8.94818" y2="6.81795" gradientUnits="userSpaceOnUse">
<stop stop-color="#FC9102"/>
<stop offset="1" stop-color="#FFA32E"/>
</linearGradient>
</defs>
</svg>
