<svg width="80" height="80" viewBox="0 0 80 80" fill="none" xmlns="http://www.w3.org/2000/svg">
<path d="M69.991 37.5787H69.6865V19.087C69.6865 16.7301 68.7687 14.5144 67.1021 12.8476L56.8391 2.58439C55.1722 0.917816 52.9564 0 50.5996 0H19.1385C14.273 0 10.3146 3.9583 10.3146 8.82394V37.5787H10.01C6.74563 37.5787 4.08984 40.2345 4.08984 43.4989V63.1646C4.08984 66.429 6.74563 69.0848 10.01 69.0848H10.3146V71.1759C10.3146 76.0414 14.2729 79.9997 19.1385 79.9997H60.8627C65.7282 79.9997 69.6865 76.0414 69.6865 71.1759V69.0848H69.991C73.2554 69.0848 75.9112 66.429 75.9112 63.1646V43.4992C75.9112 40.2347 73.2554 37.5787 69.991 37.5787ZM55.471 7.84394L62.3112 14.6843H55.9949C55.7058 14.6843 55.471 14.4491 55.471 14.1604V7.84394ZM15.001 8.82394C15.001 6.54237 16.8569 4.68642 19.1385 4.68642H50.5996C50.6614 4.68642 50.723 4.6883 50.7846 4.69096V14.1602C50.7846 17.0333 53.1221 19.3705 55.9949 19.3705H65.0001V37.5787H15.001V8.82394ZM60.8627 75.3137H19.1385C16.8571 75.3137 15.001 73.4578 15.001 71.1764V69.0853H64.9999V71.1764H65.0001C65.0001 73.4578 63.1441 75.3137 60.8627 75.3137ZM71.2248 63.1649C71.2248 63.8452 70.6714 64.3987 69.991 64.3987H67.3448C67.3443 64.3987 67.3438 64.3987 67.3432 64.3987C67.3426 64.3987 67.3423 64.3987 67.3417 64.3987H12.6593C12.6588 64.3987 12.6583 64.3987 12.6577 64.3987C12.6571 64.3987 12.6568 64.3987 12.6561 64.3987H10.0099C9.32955 64.3987 8.77611 63.8452 8.77611 63.1649V43.4992C8.77611 42.8189 9.32955 42.2655 10.0099 42.2655H69.991C70.6714 42.2655 71.2248 42.8189 71.2248 43.4992V63.1649Z" fill="#0F4D52"/>
<path d="M58.6362 47.2727H48.818C47.9144 47.2727 47.1816 46.5401 47.1816 45.6364C47.1816 44.7326 47.9144 44 48.818 44H58.6362C59.5398 44 60.2725 44.7326 60.2725 45.6364C60.2725 46.5401 59.5398 47.2727 58.6362 47.2727Z" fill="#0F4D52"/>
<path d="M53.7272 62C52.8236 62 52.0908 61.2674 52.0908 60.3636V45.6364C52.0908 44.7326 52.8236 44 53.7272 44C54.6308 44 55.3635 44.7326 55.3635 45.6364V60.3636C55.3635 61.2674 54.6308 62 53.7272 62Z" fill="#0F4D52"/>
<path d="M38.1821 62H37.3639C36.4601 62 35.7275 61.2674 35.7275 60.3636V45.6364C35.7275 44.7326 36.4601 44 37.3639 44H38.1821C43.1447 44 47.1821 48.0374 47.1821 53C47.1821 57.9626 43.1447 62 38.1821 62ZM39.0003 47.331V58.669C41.7721 58.2707 43.9094 55.8803 43.9094 53C43.9094 50.1197 41.7721 47.7293 39.0003 47.331Z" fill="#0F4D52"/>
<path d="M26.7273 62C23.5693 62 21 59.4307 21 56.2727V49.7273C21 46.5693 23.5693 44 26.7273 44C29.8853 44 32.4545 46.5693 32.4545 49.7273V56.2727C32.4545 59.4307 29.8853 62 26.7273 62ZM26.7273 47.2727C25.3738 47.2727 24.2727 48.3738 24.2727 49.7273V56.2727C24.2727 57.6262 25.3738 58.7273 26.7273 58.7273C28.0807 58.7273 29.1818 57.6262 29.1818 56.2727V49.7273C29.1818 48.3738 28.0807 47.2727 26.7273 47.2727Z" fill="#0F4D52"/>
</svg>
