<svg width="80" height="80" viewBox="0 0 80 80" fill="none" xmlns="http://www.w3.org/2000/svg">
<path d="M69.9901 37.5787H69.6855V19.087C69.6855 16.7299 68.7677 14.5141 67.1012 12.8476L56.8381 2.58454C55.1714 0.917816 52.9555 0 50.5987 0H19.1377C14.272 0 10.3137 3.9583 10.3137 8.82394V37.5787H10.009C6.74466 37.5787 4.08887 40.2345 4.08887 43.4989V63.1646C4.08887 66.429 6.74466 69.0848 10.009 69.0848H10.3136V71.1759C10.3136 76.0414 14.2719 79.9997 19.1375 79.9997H60.8618C65.7272 79.9997 69.6855 76.0414 69.6855 71.1759V69.0848H69.9901C73.2545 69.0848 75.9104 66.429 75.9104 63.1646V43.4992C75.9104 40.2347 73.2546 37.5787 69.9901 37.5787ZM55.47 7.84409L62.3102 14.6843H55.9941C55.705 14.6843 55.47 14.4491 55.47 14.1604V7.84409ZM15 8.82394C15 6.54237 16.856 4.68642 19.1375 4.68642H50.5986C50.6605 4.68642 50.722 4.6883 50.7836 4.69096V14.1602C50.7836 17.0333 53.1211 19.3705 55.9941 19.3705H64.9991V37.5787H15V8.82394ZM64.9991 71.1764C64.9991 73.4578 63.1432 75.3137 60.8618 75.3137H19.1375C16.8561 75.3137 15 73.4578 15 71.1764V69.0853H64.999V71.1764H64.9991ZM71.2241 63.1649C71.224 63.8452 70.6705 64.3987 69.9901 64.3987H67.344C67.3435 64.3987 67.343 64.3987 67.3424 64.3987C67.3418 64.3987 67.3415 64.3987 67.3408 64.3987H12.6569H12.6553H10.009H10.0089C9.32858 64.3987 8.77514 63.8452 8.77514 63.1649V43.4992C8.77514 42.8189 9.32858 42.2655 10.0089 42.2655H69.9901C70.6704 42.2655 71.224 42.8189 71.224 43.4992V63.1649H71.2241Z" fill="#0F4D52"/>
<path d="M31.7397 45.9282C30.7045 45.0373 29.3277 44.5918 27.6103 44.5918H22.6261C22.2086 44.5918 21.8714 44.7043 21.6147 44.929C21.3576 45.154 21.2295 45.4188 21.2295 45.7235V61.0375C21.2295 61.4069 21.4139 61.6917 21.7832 61.8923C22.1522 62.0933 22.5937 62.1934 23.1076 62.1934C23.6211 62.1934 24.0625 62.0933 24.4319 61.8923C24.8009 61.6917 24.9856 61.407 24.9856 61.0375V55.8367H27.3694C29.1511 55.8367 30.5837 55.3834 31.6673 54.4764C32.7509 53.5696 33.2927 52.161 33.2927 50.2506V50.1301C33.2928 48.2199 32.775 46.8191 31.7397 45.9282ZM29.5366 50.5393C29.5366 52.1448 28.8141 52.9471 27.3694 52.9471H24.9858V47.8667H27.3695C28.8142 47.8667 29.5367 48.6696 29.5367 50.2745V50.5393H29.5366Z" fill="#0F4D52"/>
<path d="M45.1389 45.9643C44.0633 45.0493 42.6266 44.5918 40.8289 44.5918H36.567C36.0855 44.5918 35.6919 44.7043 35.3872 44.9288C35.082 45.1538 34.9297 45.4187 34.9297 45.7234V61.0614C34.9297 61.3667 35.0822 61.6314 35.3872 61.8561C35.692 62.0811 36.0855 62.1931 36.567 62.1931H40.8289C42.6264 62.1931 44.0633 61.7356 45.1389 60.8206C46.2141 59.9056 46.7522 58.4692 46.7522 56.5106V50.2743C46.7519 48.3162 46.214 46.8795 45.1389 45.9643ZM42.9958 56.5107C42.9958 58.1161 42.2735 58.9187 40.8288 58.9187H38.6858V47.8667H40.8288C42.2735 47.8667 42.9958 48.6696 42.9958 50.2746V56.5107Z" fill="#0F4D52"/>
<path d="M59.9718 45.0732C59.7791 44.7523 59.4982 44.5918 59.1291 44.5918H50.7739C50.3244 44.5918 49.9391 44.6923 49.6183 44.8929C49.2969 45.0938 49.1367 45.3785 49.1367 45.7477V61.0375C49.1367 61.4069 49.3211 61.6917 49.6905 61.8923C50.0594 62.0933 50.5009 62.1934 51.0148 62.1934C51.5283 62.1934 51.9697 62.0933 52.3391 61.8923C52.7081 61.6917 52.8928 61.407 52.8928 61.0375V54.8251H56.5286C56.8977 54.8251 57.1788 54.6806 57.3714 54.3918C57.5641 54.1028 57.6605 53.774 57.6605 53.4045C57.6605 53.0035 57.56 52.6581 57.3594 52.369C57.1585 52.08 56.8816 51.9357 56.5286 51.9357H52.8928V47.8665H59.1291C59.4819 47.8665 59.7588 47.7062 59.9597 47.3849C60.1604 47.0638 60.2608 46.6709 60.2608 46.2051C60.2608 45.7716 60.1644 45.3945 59.9718 45.0732Z" fill="#0F4D52"/>
</svg>
