<svg width="80" height="80" viewBox="0 0 80 80" fill="none" xmlns="http://www.w3.org/2000/svg">
<path d="M69.9901 37.5787H69.6855V19.087C69.6855 16.7299 68.7677 14.5141 67.1012 12.8476L56.8381 2.58454C55.1714 0.917816 52.9555 0 50.5987 0H19.1377C14.272 0 10.3137 3.9583 10.3137 8.82394V37.5787H10.009C6.74466 37.5787 4.08887 40.2345 4.08887 43.4989V63.1646C4.08887 66.429 6.74466 69.0848 10.009 69.0848H10.3136V71.1759C10.3136 76.0414 14.2719 79.9997 19.1375 79.9997H60.8618C65.7272 79.9997 69.6855 76.0414 69.6855 71.1759V69.0848H69.9901C73.2545 69.0848 75.9104 66.429 75.9104 63.1646V43.4992C75.9104 40.2347 73.2546 37.5787 69.9901 37.5787ZM55.47 7.84409L62.3102 14.6843H55.9941C55.705 14.6843 55.47 14.4491 55.47 14.1604V7.84409ZM15 8.82394C15 6.54237 16.856 4.68642 19.1375 4.68642H50.5986C50.6605 4.68642 50.722 4.6883 50.7836 4.69096V14.1602C50.7836 17.0333 53.1211 19.3705 55.9941 19.3705H64.9991V37.5787H15V8.82394ZM64.9991 71.1764C64.9991 73.4578 63.1432 75.3137 60.8618 75.3137H19.1375C16.8561 75.3137 15 73.4578 15 71.1764V69.0853H64.999V71.1764H64.9991ZM71.2241 63.1649C71.224 63.8452 70.6705 64.3987 69.9901 64.3987C69.9896 64.3987 67.3429 64.3987 67.3424 64.3987H12.6569H12.6553H10.009H10.0089C9.32858 64.3987 8.77514 63.8452 8.77514 63.1649V43.4992C8.77514 42.8189 9.32858 42.2655 10.0089 42.2655H69.9901C70.6704 42.2655 71.224 42.8189 71.224 43.4992V63.1649H71.2241Z" fill="#0F4D52"/>
<path d="M32.4987 45.0715C32.3059 44.7515 32.0249 44.5918 31.6559 44.5918H21.254C20.8846 44.5918 20.6038 44.7516 20.4111 45.0715C20.2185 45.3913 20.1221 45.7693 20.1221 46.2057C20.1221 46.6737 20.2222 47.0673 20.4232 47.387C20.6238 47.7068 20.9005 47.8662 21.254 47.8662H24.5768V61.0292C24.5768 61.4008 24.7612 61.688 25.1305 61.89C25.4996 62.092 25.941 62.193 26.4549 62.193C26.9683 62.193 27.4098 62.092 27.7793 61.89C28.1484 61.688 28.333 61.4009 28.333 61.0292V47.8662H31.6559C32.0087 47.8662 32.2856 47.7067 32.4865 47.387C32.6871 47.0671 32.7876 46.6737 32.7876 46.2057C32.7876 45.7693 32.6913 45.3912 32.4987 45.0715Z" fill="#0F4D52"/>
<path d="M46.776 59.8092L42.6107 53.3803L46.6077 46.9754C46.768 46.7187 46.8485 46.4698 46.8485 46.229C46.8485 45.7474 46.5836 45.3302 46.054 44.977C45.5243 44.6241 44.9785 44.4473 44.4166 44.4473C43.8869 44.4473 43.5094 44.656 43.2849 45.0732L40.0825 50.6596L36.8802 45.0734C36.6552 44.6562 36.2781 44.4474 35.7484 44.4474C35.1864 44.4474 34.6409 44.6243 34.1111 44.9771C33.5814 45.3302 33.3164 45.7476 33.3164 46.2291C33.3164 46.4701 33.3966 46.719 33.5573 46.9756L37.5542 53.3804L33.3886 59.8094C33.2441 60.0501 33.1719 60.275 33.1719 60.4834C33.1719 60.965 33.4489 61.3947 34.0027 61.7717C34.5564 62.1491 35.1139 62.3375 35.6761 62.3375C36.1094 62.3375 36.4064 62.2087 36.567 61.9523L40.0825 55.9809L43.598 61.9523C43.7425 62.2091 44.0393 62.3375 44.489 62.3375C45.0507 62.3375 45.6085 62.1489 46.1624 61.7717C46.7162 61.3948 46.993 60.965 46.993 60.4834C46.9927 60.275 46.9205 60.05 46.776 59.8092Z" fill="#0F4D52"/>
<path d="M59.7545 45.0715C59.5617 44.7515 59.2808 44.5918 58.9117 44.5918H48.5098C48.1404 44.5918 47.8597 44.7516 47.667 45.0715C47.4743 45.3913 47.3779 45.7693 47.3779 46.2057C47.3779 46.6737 47.4781 47.0673 47.679 47.387C47.8797 47.7068 48.1564 47.8662 48.5098 47.8662H51.8326V61.0292C51.8326 61.4008 52.017 61.688 52.3864 61.89C52.7553 62.092 53.1969 62.193 53.7108 62.193C54.2242 62.193 54.6656 62.092 55.0352 61.89C55.4041 61.688 55.5889 61.4009 55.5889 61.0292V47.8662H58.9117C59.2645 47.8662 59.5414 47.7067 59.7424 47.387C59.943 47.0671 60.0434 46.6737 60.0434 46.2057C60.0436 45.7693 59.9472 45.3912 59.7545 45.0715Z" fill="#0F4D52"/>
</svg>
