<svg width="67" height="67" viewBox="0 0 67 67" fill="none" xmlns="http://www.w3.org/2000/svg">
<path fill-rule="evenodd" clip-rule="evenodd" d="M5.23438 59.1484V13.0859C5.23438 13.0525 5.23033 13.0147 5.22266 12.973V10.4648H7.78653C7.80972 10.4674 7.83143 10.4688 7.85156 10.4688H15.1797V15.7031H36.1172V10.4688H43.9688C43.9888 10.4688 44.0101 10.4674 44.0326 10.4648H46.584V15.6914H46.5859V15.7031H51.8203V13.0859C51.8203 12.9295 51.8157 12.7741 51.8066 12.6199V5.24219H51.1973H46.584H44.3213C44.2044 5.237 44.0869 5.23438 43.9688 5.23438H36.1172V0H15.1797V5.23438H7.85156C7.73343 5.23438 7.61589 5.237 7.49902 5.24219H5.22266H0.609375H0V13.0859V23.3447V48.8975V59.1484V67H0.609375H5.22266H7.85156H18.7119H33.5V61.7656H7.85156C7.816 61.7656 7.77523 61.7697 7.72976 61.7773H5.22266V59.2472C5.23034 59.2106 5.23438 59.1776 5.23438 59.1484ZM20.4141 5.23438H30.8828V10.4688H20.4141V5.23438ZM67 33.8295L63.1789 30.2186L59.5975 33.9771C57.2096 32.1993 54.3756 30.9895 51.2969 30.5472V25.125H56.5312V19.8906H40.8281V25.125H46.0625V30.5472C42.9838 30.9895 40.1497 32.1993 37.7618 33.9771L34.1805 30.2186L30.3909 33.8295L34.048 37.6676C31.7337 40.735 30.3594 44.5496 30.3594 48.6797C30.3594 58.7815 38.5779 67 48.6797 67C58.7815 67 67 58.7815 67 48.6797C67 44.5496 65.6257 40.735 63.3113 37.6675L67 33.8295ZM48.6797 61.7656C41.4641 61.7656 35.5938 55.8953 35.5938 48.6797C35.5938 41.4641 41.4641 35.5938 48.6797 35.5938C55.8953 35.5938 61.7656 41.4641 61.7656 48.6797C61.7656 55.8953 55.8953 61.7656 48.6797 61.7656Z" fill="#0F4D52"/>
<path d="M25.1055 51.9814H9.40234V46.7471H25.1055V51.9814Z" fill="#FE9B1A"/>
<path d="M9.40234 36.2783H25.1055V41.5127H9.40234V36.2783Z" fill="#FE9B1A"/>
<path d="M9.40234 25.8096H25.1055V31.0439H9.40234V25.8096Z" fill="#FE9B1A"/>
<path d="M45.5195 40.9893H50.7539V47.7568L55.2217 52.2246L51.5205 55.9258L45.5195 49.9249V40.9893Z" fill="#FE9B1A"/>
</svg>
