<svg width="24" height="30" viewBox="0 0 24 30" fill="none" xmlns="http://www.w3.org/2000/svg">
<path d="M12.9933 20.9734L6.0239 20.9766C6.0239 20.9766 6.02367 20.9766 6.02344 20.9766C5.37639 20.9766 4.85179 20.4524 4.85156 19.8054C4.8511 19.1581 5.3757 18.633 6.02275 18.6328L12.9922 18.6296H12.9927C13.6397 18.6296 14.1643 19.1537 14.1645 19.8008C14.165 20.4481 13.6406 20.9729 12.9933 20.9734ZM11.4102 22.907L6.02275 22.9102C5.37547 22.9106 4.8511 23.4357 4.85156 24.0827C4.85202 24.7298 5.37662 25.2539 6.02344 25.2539H6.02412L11.4115 25.2507C12.0588 25.2502 12.5832 24.7252 12.5827 24.0781C12.5823 23.4311 12.0577 22.907 11.4109 22.907C11.4106 22.907 11.4104 22.907 11.4102 22.907ZM23.605 22.6891L16.6342 29.6535C16.6339 29.6535 16.6339 29.6535 16.6339 29.6537L16.6335 29.6539C16.6321 29.6555 16.6303 29.6569 16.6287 29.6585C16.603 29.6837 16.5765 29.7079 16.5488 29.7306C16.5417 29.7366 16.5341 29.7414 16.5268 29.7471C16.5039 29.7649 16.4808 29.7828 16.4566 29.799C16.4501 29.8034 16.4433 29.8068 16.4366 29.8112C16.411 29.8277 16.3851 29.8437 16.3581 29.8581C16.3536 29.8604 16.349 29.8624 16.3446 29.8647C16.3151 29.8798 16.2851 29.8945 16.2542 29.9073C16.2517 29.9084 16.2492 29.9091 16.2467 29.91C16.2139 29.9233 16.1808 29.9355 16.1467 29.946C16.1439 29.9467 16.1412 29.9471 16.1386 29.948C16.1048 29.9579 16.0707 29.9668 16.0359 29.9737C16.0281 29.9753 16.0201 29.976 16.0121 29.9773C15.9825 29.9826 15.9528 29.9876 15.9223 29.9908C15.8837 29.9947 15.8448 29.9968 15.8056 29.9968L4.85202 30C2.2668 30 0.164062 27.8973 0.164062 25.3125V4.6875C0.164062 2.10274 2.2668 0 4.85156 0H19.2592C21.8438 0 23.9467 2.10274 23.9467 4.6875L23.9481 15.9959C23.9481 16.6431 23.4235 17.168 22.7762 17.168C22.1289 17.168 21.6043 16.6434 21.6043 15.9963L21.603 4.68773C21.603 3.39523 20.5515 2.34375 19.2592 2.34375H4.85156C3.5593 2.34375 2.50781 3.39523 2.50781 4.6875V25.3125C2.50781 26.6048 3.5593 27.6562 4.85156 27.6562L14.6335 27.6533V24.7884C14.6335 22.5268 16.4735 20.6868 18.7351 20.6868H22.7774C22.8163 20.6868 22.8552 20.6889 22.8941 20.6927C22.9108 20.6944 22.9268 20.6976 22.9433 20.6998C22.9646 20.7028 22.9859 20.7053 23.0072 20.7097C23.0271 20.7136 23.0463 20.7191 23.066 20.7241C23.0834 20.7285 23.101 20.7321 23.1182 20.7376C23.1378 20.7436 23.1568 20.7509 23.1761 20.7578C23.1928 20.7637 23.2097 20.7692 23.2262 20.7761C23.2447 20.7838 23.2626 20.7928 23.2804 20.8015C23.2971 20.8092 23.3139 20.8166 23.3299 20.825C23.348 20.8349 23.3651 20.8459 23.3828 20.8564C23.3979 20.8656 23.4132 20.874 23.4281 20.8841C23.4489 20.8978 23.4688 20.9134 23.4887 20.9285C23.499 20.9365 23.51 20.9436 23.5201 20.9521C23.5805 21.0015 23.6359 21.0569 23.6853 21.1173C23.6929 21.1267 23.6995 21.1368 23.7071 21.1464C23.7229 21.1672 23.7389 21.1878 23.7533 21.2096C23.7622 21.2228 23.7698 21.2368 23.7783 21.2505C23.7899 21.2695 23.8016 21.2883 23.8124 21.308C23.8199 21.3224 23.8263 21.3371 23.8332 21.3515C23.8428 21.3716 23.8526 21.3915 23.8613 21.4121C23.8671 21.4261 23.8716 21.4403 23.8767 21.4542C23.8849 21.4762 23.8932 21.498 23.8998 21.5204C23.9039 21.5339 23.9069 21.5476 23.9103 21.5611C23.9165 21.5847 23.9229 21.6078 23.9275 21.6316C23.9302 21.646 23.9318 21.6607 23.9341 21.6751C23.9378 21.6982 23.9419 21.7213 23.9442 21.7449C23.9463 21.7655 23.9465 21.7859 23.9474 21.8065C23.9481 21.8239 23.9499 21.841 23.9499 21.8589C23.9499 21.8761 23.9481 21.8928 23.9474 21.9097C23.9465 21.9308 23.9463 21.9521 23.9442 21.9731C23.9419 21.9971 23.9376 22.0205 23.9339 22.0441C23.9316 22.0583 23.9302 22.0724 23.9275 22.0864C23.9227 22.1107 23.9163 22.134 23.9101 22.1576C23.9064 22.1709 23.9037 22.1844 23.8998 22.1976C23.8929 22.2203 23.8845 22.2423 23.8764 22.2643C23.8714 22.2782 23.8668 22.2922 23.8611 22.3061C23.8526 22.3267 23.8426 22.3466 23.833 22.3668C23.8261 22.3812 23.8197 22.3959 23.8121 22.41C23.8016 22.43 23.7897 22.4487 23.778 22.4677C23.7698 22.4815 23.762 22.4952 23.7533 22.5087C23.7384 22.5309 23.722 22.552 23.7057 22.573C23.6986 22.5822 23.6924 22.5918 23.6851 22.6009C23.6597 22.6314 23.6329 22.6609 23.605 22.6891ZM16.9773 24.7884V25.9975L19.9468 23.0305H18.7351C17.7658 23.0305 16.9773 23.8193 16.9773 24.7884ZM15.739 16.4062H8.26099C7.6739 16.4062 7.12482 16.1451 6.75426 15.6896C6.38187 15.2321 6.23744 14.6381 6.3576 14.0598C6.69017 12.4583 7.68626 11.1237 9.01904 10.3185C8.57295 9.70825 8.30859 8.95683 8.30859 8.14453C8.30859 6.10909 9.96455 4.45312 12 4.45312C14.0354 4.45312 15.6914 6.10909 15.6914 8.14453C15.6914 8.95683 15.427 9.70825 14.9807 10.3185C16.3137 11.1237 17.3096 12.4583 17.6424 14.0598C17.7626 14.6381 17.6179 15.2321 17.2457 15.6896C16.8752 16.1451 16.3261 16.4062 15.739 16.4062ZM10.6523 8.14453C10.6523 8.88771 11.2568 9.49219 12 9.49219C12.7432 9.49219 13.3477 8.88771 13.3477 8.14453C13.3477 7.40135 12.7432 6.79688 12 6.79688C11.2568 6.79688 10.6523 7.40135 10.6523 8.14453ZM15.2124 14.0625C14.7299 12.7476 13.4614 11.8359 12.0307 11.8359H11.9693C10.5386 11.8359 9.27013 12.7476 8.78764 14.0625H15.2124Z" fill="url(#paint0_linear_572_17670)"/>
<defs>
<linearGradient id="paint0_linear_572_17670" x1="-2.6161" y1="-3.21219e-06" x2="27.4953" y2="1.54525" gradientUnits="userSpaceOnUse">
<stop stop-color="#66A882"/>
<stop offset="1" stop-color="#488774"/>
</linearGradient>
</defs>
</svg>
