<svg width="20" height="20" viewBox="0 0 20 20" fill="none" xmlns="http://www.w3.org/2000/svg">
<path d="M17.4968 9.39469H17.4206V4.77174C17.4206 4.18248 17.1912 3.62853 16.7746 3.21189L14.2088 0.646135C13.7921 0.229454 13.2381 0 12.649 0H4.78369C3.56728 0 2.5777 0.989574 2.5777 2.20599V9.39469H2.50153C1.68543 9.39469 1.02148 10.0586 1.02148 10.8747V15.7912C1.02148 16.6073 1.68543 17.2712 2.50153 17.2712H2.57766V17.794C2.57766 19.0103 3.56724 19.9999 4.78365 19.9999H15.2147C16.4311 19.9999 17.4206 19.0103 17.4206 17.794V17.2712H17.4968C18.3129 17.2712 18.9769 16.6073 18.9769 15.7912V10.8748C18.9769 10.0587 18.3129 9.39469 17.4968 9.39469ZM13.8668 1.96102L15.5768 3.67107H13.9978C13.9255 3.67107 13.8668 3.61228 13.8668 3.54009V1.96102ZM3.74927 2.20599C3.74927 1.63559 4.21325 1.17161 4.78365 1.17161H12.6489C12.6644 1.17161 12.6798 1.17207 12.6952 1.17274V3.54005C12.6952 4.25834 13.2795 4.84264 13.9978 4.84264H16.249V9.39469H3.74927V2.20599ZM16.249 17.7941C16.249 18.3644 15.7851 18.8284 15.2147 18.8284H4.78365C4.21329 18.8284 3.74927 18.3644 3.74927 17.7941V17.2713H16.249V17.7941H16.249ZM17.8053 15.7912C17.8053 15.9613 17.6669 16.0997 17.4968 16.0997H16.8353C16.8351 16.0997 16.835 16.0997 16.8349 16.0997C16.8347 16.0997 16.8346 16.0997 16.8345 16.0997H3.16348H3.16309H2.50153H2.50149C2.33141 16.0997 2.19305 15.9613 2.19305 15.7912V10.8748C2.19305 10.7047 2.33141 10.5664 2.50149 10.5664H17.4968C17.6669 10.5664 17.8053 10.7047 17.8053 10.8748V15.7912H17.8053Z" fill="#0F4D52"/>
<path d="M7.93419 11.4821C7.6754 11.2593 7.33118 11.1479 6.90184 11.1479H5.65578C5.55141 11.1479 5.46711 11.1761 5.40293 11.2322C5.33867 11.2885 5.30664 11.3547 5.30664 11.4309V15.2594C5.30664 15.3517 5.35273 15.4229 5.44508 15.4731C5.53731 15.5233 5.6477 15.5484 5.77617 15.5484C5.90453 15.5484 6.01489 15.5233 6.10723 15.4731C6.1995 15.4229 6.24567 15.3518 6.24567 15.2594V13.9592H6.84161C7.28704 13.9592 7.6452 13.8458 7.9161 13.6191C8.187 13.3924 8.32243 13.0403 8.32243 12.5626V12.5325C8.32247 12.055 8.19302 11.7048 7.93419 11.4821ZM7.38341 12.6348C7.38341 13.0362 7.20278 13.2368 6.84161 13.2368H6.24571V11.9667H6.84165C7.20282 11.9667 7.38345 12.1674 7.38345 12.5686V12.6348H7.38341Z" fill="#0F4D52"/>
<path d="M11.2847 11.4911C11.0158 11.2623 10.6566 11.1479 10.2072 11.1479H9.14176C9.02137 11.1479 8.92297 11.1761 8.8468 11.2322C8.77051 11.2885 8.73242 11.3547 8.73242 11.4308V15.2653C8.73242 15.3417 8.77055 15.4078 8.8468 15.464C8.92301 15.5203 9.02137 15.5483 9.14176 15.5483H10.2072C10.6566 15.5483 11.0158 15.4339 11.2847 15.2052C11.5535 14.9764 11.6881 14.6173 11.6881 14.1276V12.5686C11.688 12.079 11.5535 11.7199 11.2847 11.4911ZM10.749 14.1277C10.749 14.529 10.5684 14.7297 10.2072 14.7297H9.67145V11.9667H10.2072C10.5684 11.9667 10.749 12.1674 10.749 12.5687V14.1277Z" fill="#0F4D52"/>
<path d="M14.992 11.2683C14.9438 11.1881 14.8736 11.1479 14.7813 11.1479H12.6925C12.5801 11.1479 12.4838 11.1731 12.4036 11.2232C12.3232 11.2735 12.2832 11.3446 12.2832 11.4369V15.2594C12.2832 15.3517 12.3293 15.4229 12.4216 15.4731C12.5139 15.5233 12.6243 15.5484 12.7527 15.5484C12.8811 15.5484 12.9914 15.5233 13.0838 15.4731C13.1761 15.4229 13.2222 15.3518 13.2222 15.2594V13.7063H14.1312C14.2234 13.7063 14.2937 13.6701 14.3419 13.598C14.39 13.5257 14.4141 13.4435 14.4141 13.3511C14.4141 13.2509 14.389 13.1645 14.3389 13.0923C14.2886 13.02 14.2194 12.9839 14.1312 12.9839H13.2222V11.9666H14.7813C14.8695 11.9666 14.9387 11.9265 14.989 11.8462C15.0391 11.766 15.0642 11.6677 15.0642 11.5513C15.0642 11.4429 15.0401 11.3486 14.992 11.2683Z" fill="#0F4D52"/>
</svg>
