<svg width="50" height="50" viewBox="0 0 50 50" fill="none" xmlns="http://www.w3.org/2000/svg">
<g clip-path="url(#clip0_407_9572)">
<path d="M45.6176 39.1236C48.3804 35.1028 50 30.2382 50 25.0016C50 11.2155 38.7861 -0.00012207 25.0018 -0.00012207C19.9652 -0.00012207 15.2728 1.49822 11.3439 4.07048C11.2523 4.11902 11.1674 4.17527 11.0893 4.23826C4.40615 8.73083 0 16.3611 0 25.0016C0 38.786 11.2156 49.9999 25.0018 49.9999C33.426 49.9999 40.8896 45.8111 45.4207 39.4074C45.4962 39.3211 45.5616 39.2256 45.6176 39.1236ZM25.0018 46.8002C12.9802 46.8002 3.1998 37.0216 3.1998 25.0016C3.1998 18.0121 6.50674 11.7809 11.6374 7.78835C12.4104 8.74441 13.3505 9.34421 14.353 9.49167C14.5298 9.51765 14.7084 9.52986 14.8887 9.52986C16.1167 9.52986 17.4055 8.96218 18.7618 8.36501C19.2861 8.13357 19.8339 7.89177 20.3973 7.67683C21.2224 7.3614 21.6366 6.4366 21.3211 5.6116C21.0065 4.78562 20.0817 4.37312 19.2559 4.68777C18.6414 4.92263 18.0434 5.18435 17.4714 5.4366C16.5007 5.86384 15.2892 6.38992 14.8193 6.32576C14.6893 6.30642 14.5137 6.19441 14.3225 6.00046C17.3407 4.29734 20.8023 3.29187 24.4878 3.20613C24.178 4.39011 23.7826 5.81062 23.3941 6.22253C22.8976 6.74773 21.9546 7.20876 21.1234 7.61619C19.7532 8.28611 18.3371 8.97947 18.0095 10.3982C17.8829 10.946 17.8864 11.7988 18.6257 12.7469C19.923 14.4117 22.2553 14.4577 24.5112 14.5027C25.7593 14.5269 27.1728 14.5547 27.8288 14.9127C28.0464 15.0314 28.2466 15.3218 28.3289 15.6346C28.3965 15.8921 28.3523 16.0393 28.3437 16.0567C28.3437 16.0567 28.2951 16.0949 28.2162 16.1148C28.0905 16.101 27.7534 15.9363 27.5307 15.8271C27.0896 15.6122 26.5886 15.367 26.0062 15.2733C25.2235 15.1468 24.5285 15.2499 23.9694 15.3323C23.6565 15.3782 23.4069 15.4146 23.1383 15.4181C22.7023 15.4173 22.2109 15.3306 21.6909 15.2387C20.5313 15.0334 19.0892 14.7786 17.6106 15.4372C16.2066 16.0621 15.0055 17.3968 14.0408 18.4697C13.8129 18.7236 13.5953 18.9654 13.3899 19.1812L13.201 19.3788C11.03 21.6486 9.46133 23.2884 11.3532 27.4501C12.4383 29.836 13.552 31.6612 17.1244 31.6612C17.1365 31.6612 17.1479 31.6612 17.1591 31.6612C18.122 31.6577 19.0068 31.4038 19.7877 31.1802C20.0555 31.1031 20.4169 30.9991 20.6838 30.9463C20.7037 31.0806 20.7202 31.2713 20.7228 31.5339C20.7366 32.9023 21.5772 33.672 22.08 34.1313C22.2057 34.2474 22.3963 34.4217 22.4249 34.4624C22.4249 34.4624 22.431 34.5161 22.3998 34.6453C22.2889 35.102 22.1424 35.3257 21.9578 35.6082C21.4422 36.3986 21.0287 37.2436 21.6033 38.8738L21.6016 38.8756L21.6449 38.9908C21.6501 39.0047 21.6553 39.0185 21.6605 39.0333C21.6641 39.0411 21.6666 39.0498 21.6701 39.0575C21.7932 39.3972 21.9119 39.8999 22.0385 40.432C22.4822 42.3014 23.3628 46.0177 26.5851 46.0169C26.8884 46.0169 27.2134 45.9848 27.5627 45.9164C30.349 45.3496 31.6387 42.1871 32.4915 40.0958C32.5573 39.9337 32.6345 39.7466 32.7073 39.5723C33.7794 39.425 34.5663 39.0324 35.1011 38.3859C36.0579 37.2246 35.7884 35.7685 35.5916 34.7043C35.531 34.3775 35.4339 33.8593 35.4486 33.6071C37.1101 32.9146 40.5108 31.4811 39.9961 28.466C39.769 27.1278 38.593 25.9405 37.1049 24.4377C35.9487 23.2694 33.7977 21.0958 34.2275 20.295C34.6462 19.5168 34.3541 18.5469 33.5758 18.1283C32.7992 17.7105 31.8277 18.0017 31.4091 18.7801C29.8586 21.6652 32.6155 24.4498 34.8307 26.6884C35.5804 27.4451 36.714 28.589 36.8413 29.0024C36.8621 29.1246 36.7321 29.6048 34.1867 30.6647C31.7748 31.671 32.2263 34.1124 32.4438 35.2858C32.5011 35.5961 32.5912 36.0823 32.5859 36.3371C32.4585 36.3778 32.1916 36.435 31.6993 36.4393C31.2643 36.4436 30.85 36.623 30.5501 36.9394C30.1497 37.3615 29.9019 37.9681 29.5274 38.8877C29.004 40.1686 28.0315 42.5537 26.923 42.7799C26.2245 42.9263 25.8241 42.5251 25.1533 39.6954C25.0146 39.1078 24.882 38.5497 24.7104 38.0548L24.7122 38.0539L24.6706 37.9438C24.6654 37.93 24.661 37.9187 24.6559 37.9056C24.655 37.9021 24.6532 37.8978 24.6523 37.8944C24.5787 37.6994 24.5475 37.5799 24.5345 37.5148C24.5648 37.4636 24.6003 37.4151 24.6367 37.3605C24.8881 36.974 25.2694 36.3925 25.5095 35.4001C25.9991 33.3799 24.8109 32.293 24.2398 31.7705C24.1202 31.6604 23.927 31.501 23.9227 31.501C23.9122 30.4973 23.771 29.0682 22.6634 28.2423C21.4864 27.3635 20.0547 27.7734 18.9055 28.1036C18.2971 28.2778 17.667 28.4581 17.1487 28.4598C15.4423 28.4451 15.171 28.1123 14.2671 26.1242C13.2704 23.9342 13.4403 23.7564 15.5134 21.5898L15.704 21.3905C15.9302 21.1539 16.1694 20.8879 16.4199 20.6096C17.1817 19.7629 18.129 18.7082 18.9107 18.3606C19.468 18.1128 20.118 18.2098 21.1338 18.3892C21.737 18.495 22.419 18.6163 23.1323 18.6172C23.5994 18.6172 24.051 18.5539 24.435 18.4975C24.8466 18.436 25.202 18.3823 25.4958 18.4317C25.6102 18.4499 25.9196 18.6015 26.1241 18.7021C26.7663 19.0159 27.6426 19.4431 28.6669 19.2767C30.2 19.0245 31.2635 17.9975 31.5122 16.5302C31.7999 14.8316 30.8752 12.9284 29.3603 12.1033C28.0178 11.3727 26.268 11.3381 24.5754 11.3043C23.6749 11.2861 22.2969 11.2593 21.5507 10.9905C21.8584 10.8189 22.2362 10.6343 22.53 10.4904C23.6063 9.96345 24.8267 9.36638 25.7202 8.41902C26.7169 7.36511 27.1857 5.55203 27.6832 3.6324C27.7058 3.54587 27.7283 3.45935 27.7508 3.37273C37.1156 4.55652 44.6463 11.7062 46.4082 20.8823C46.2727 20.8184 46.1102 20.7358 45.9119 20.6304C45.1067 20.2014 44.0053 19.6156 42.7355 20.0377C41.5187 20.4432 41.0611 21.5622 40.789 22.2321C40.1112 21.7572 38.767 20.4242 37.7816 19.3227C37.1923 18.664 36.1809 18.6068 35.523 19.1962C34.8652 19.7846 34.8071 20.7961 35.3965 21.4548C35.8402 21.9513 38.123 24.4638 39.495 25.1875C40.0766 25.4943 40.6277 25.6476 41.1451 25.6476C41.4346 25.6476 41.7137 25.5991 41.9806 25.5029C43.0734 25.1051 43.4799 24.105 43.7512 23.4428C43.7823 23.3648 43.8223 23.2686 43.8612 23.1785C44.0319 23.2556 44.2452 23.3683 44.4063 23.455C44.9703 23.756 45.8102 24.203 46.7861 24.2614C46.7944 24.5074 46.8001 24.7541 46.8001 25.002C46.8001 28.5248 45.9592 31.8544 44.469 34.8023C43.8764 34.3285 42.9669 33.8937 41.5939 33.8221C40.1726 33.7389 37.5795 34.3525 36.1738 39.2709C35.9312 40.1193 36.4234 41.0059 37.2728 41.2486C37.4192 41.2911 37.5683 41.311 37.7139 41.311C38.409 41.311 39.0494 40.8525 39.2505 40.1506C39.8155 38.178 40.6303 36.9647 41.4259 37.0176C42.2232 37.06 42.4737 37.2897 42.5317 37.3591C42.6141 37.458 42.6427 37.6209 42.648 37.784C38.6828 43.2429 32.2504 46.8002 25.0018 46.8002Z" fill="#0F4D52"/>
<circle cx="36.5" cy="12.4999" r="3.5" fill="url(#paint0_linear_407_9572)"/>
</g>
<defs>
<linearGradient id="paint0_linear_407_9572" x1="32.1818" y1="8.99988" x2="41.0296" y2="9.57255" gradientUnits="userSpaceOnUse">
<stop stop-color="#FC9102"/>
<stop offset="1" stop-color="#FFA32E"/>
</linearGradient>
<clipPath id="clip0_407_9572">
<rect width="50" height="50" fill="white" transform="translate(0 -0.00012207)"/>
</clipPath>
</defs>
</svg>
