<svg width="40" height="40" viewBox="0 0 40 40" fill="none" xmlns="http://www.w3.org/2000/svg">
<rect width="40" height="40" rx="20" fill="#F2F5F7"/>
<path d="M28.047 13.8902C27.4144 12.6251 26.4784 11.5417 25.3251 10.7394C24.1718 9.93714 22.8381 9.44184 21.4467 9.29902C20.8173 9.23496 20.1831 9.23496 19.5537 9.29902C18.1624 9.44193 16.8287 9.93722 15.6753 10.7394C14.522 11.5415 13.5859 12.6248 12.953 13.8898C12.1568 15.5037 11.8492 17.3205 12.0691 19.1114C12.289 20.9023 13.0264 22.5872 14.1885 23.9538L19.8555 30.9421C19.9338 31.0387 20.0322 31.1165 20.1436 31.1699C20.2551 31.2233 20.3768 31.251 20.5 31.251C20.6233 31.251 20.745 31.2233 20.8564 31.1699C20.9678 31.1165 21.0662 31.0387 21.1445 30.9421L26.8115 23.9538C27.9736 22.5872 28.711 20.9025 28.9309 19.1116C29.1508 17.3208 28.8432 15.5041 28.047 13.8902ZM20.5 21.0967C19.84 21.0967 19.1948 20.8982 18.6461 20.5263C18.0973 20.1543 17.6696 19.6257 17.417 19.0073C17.1644 18.3888 17.0983 17.7082 17.2271 17.0517C17.3559 16.3951 17.6737 15.792 18.1404 15.3187C18.6071 14.8453 19.2017 14.5229 19.849 14.3923C20.4963 14.2617 21.1673 14.3288 21.777 14.585C22.3868 14.8411 22.908 15.275 23.2746 15.8316C23.6413 16.3882 23.837 17.0426 23.837 17.712C23.836 18.6093 23.4841 19.4696 22.8585 20.1042C22.2329 20.7387 21.3847 21.0956 20.5 21.0967Z" fill="url(#paint0_linear_1148_410)"/>
<defs>
<linearGradient id="paint0_linear_1148_410" x1="10.013" y1="9.25097" x2="31.5367" y2="10.3275" gradientUnits="userSpaceOnUse">
<stop stop-color="#66A882"/>
<stop offset="1" stop-color="#488774"/>
</linearGradient>
</defs>
</svg>
