<svg width="74" height="82" viewBox="0 0 74 82" fill="none" xmlns="http://www.w3.org/2000/svg">
<path fill-rule="evenodd" clip-rule="evenodd" d="M73.4586 27.7833C73.4586 24.7458 72.2503 21.8333 70.1045 19.6833C66.092 15.675 58.1586 7.74167 54.1503 3.72917C52.0003 1.58333 49.0878 0.375 46.0503 0.375C40.6128 0.375 29.717 0.375 20.3337 0.375C15.0837 0.375 10.0503 2.45833 6.33782 6.17083C2.62532 9.88333 0.541992 14.9167 0.541992 20.1667V61.8333C0.541992 72.7625 9.40449 81.625 20.3337 81.625H53.667C64.5961 81.625 73.4586 72.7625 73.4586 61.8333C73.4586 49.7958 73.4586 34.5167 73.4586 27.7833ZM46.3753 6.63333C46.267 6.62917 46.1587 6.625 46.0503 6.625C40.6128 6.625 29.717 6.625 20.3337 6.625C16.742 6.625 13.2962 8.05 10.7587 10.5917C8.21699 13.1292 6.79199 16.575 6.79199 20.1667V61.8333C6.79199 69.3125 12.8545 75.375 20.3337 75.375H53.667C61.1461 75.375 67.2086 69.3125 67.2086 61.8333C67.2086 49.7958 67.2086 34.5167 67.2086 27.7833C67.2086 27.675 67.2045 27.5667 67.2003 27.4583H57.8336C54.7962 27.4583 51.8795 26.25 49.7295 24.1042C47.5837 21.9542 46.3753 19.0375 46.3753 16V6.63333ZM62.7878 21.2083L52.6253 11.0458V16C52.6253 17.3833 53.1753 18.7042 54.1503 19.6833C55.1295 20.6583 56.4503 21.2083 57.8336 21.2083H62.7878Z" fill="#0F4D52"/>
<path fill-rule="evenodd" clip-rule="evenodd" d="M37.0003 29.5415H37.0753C37.3628 29.5498 37.6419 29.5957 37.9044 29.6748L37.9128 29.679C38.3878 29.8207 38.8336 30.0832 39.2086 30.4582L47.5419 38.7915C48.7628 40.0082 48.7628 41.9915 47.5419 43.2082C46.3253 44.429 44.3419 44.429 43.1253 43.2082L40.1253 40.2123V53.4998C40.1253 55.2249 38.7253 56.6249 37.0003 56.6249C35.2753 56.6249 33.8753 55.2249 33.8753 53.4998V40.2123L30.8753 43.2082C29.6586 44.429 27.6753 44.429 26.4586 43.2082C25.2378 41.9915 25.2378 40.0082 26.4586 38.7915L34.7919 30.4582C35.1669 30.0832 35.6128 29.8207 36.0878 29.679L36.0961 29.6748C36.3586 29.5957 36.6378 29.5498 36.9253 29.5415H37.0003Z" fill="#0F4D52"/>
</svg>
