<svg width="158" height="128" viewBox="0 0 158 128" fill="none" xmlns="http://www.w3.org/2000/svg">
<g filter="url(#filter0_d_387_9459)">
<path d="M93.6973 83.7559C93.6973 83.6667 93.727 83.503 93.7865 83.2638L102.109 55.9708C102.347 55.2246 102.891 54.6501 103.742 54.2473C104.592 53.8445 105.568 53.6431 106.673 53.6431C107.776 53.6431 108.753 53.8445 109.603 54.2473C110.454 54.6501 110.997 55.2246 111.236 55.9708L119.603 83.2638C119.663 83.503 119.694 83.6667 119.694 83.7559C119.694 84.5318 119.208 85.2036 118.239 85.7701C117.27 86.3366 116.263 86.6192 115.219 86.6192C113.936 86.6192 113.175 86.1878 112.937 85.3226L111.416 79.7299H101.975L100.454 85.3226C100.215 86.1878 99.4536 86.6192 98.1719 86.6192C97.1271 86.6192 96.12 86.3366 95.1507 85.7701C94.1813 85.2036 93.6973 84.5318 93.6973 83.7559ZM103.406 74.3603H109.939L106.673 62.3692L103.406 74.3603Z" fill="#0F4D52"/>
<path d="M128.697 36.9497H98.7831V22.268C98.7831 10.5218 89.2273 0.964844 77.4799 0.964844H21.3032C9.55696 0.964844 0 10.5218 0 22.268V47.278C0 58.864 9.29604 68.3191 20.8225 68.5766C20.7458 71.0061 20.4746 73.7127 20.0111 76.6607C19.6976 78.6508 20.438 80.6066 21.9898 81.8929C23.0312 82.7558 24.3004 83.2044 25.597 83.2044C26.2424 83.2044 26.8948 83.0923 27.5299 82.8657C31.7528 81.3562 39.0987 77.5384 42.8867 68.5811H63.9988V83.2639C63.9988 95.0101 73.5558 104.567 85.302 104.567H107.113C110.902 113.524 118.247 117.341 122.471 118.852C123.105 119.078 123.758 119.189 124.403 119.189C125.7 119.189 126.969 118.741 128.01 117.878C129.563 116.593 130.302 114.636 129.989 112.645C129.525 109.699 129.254 106.991 129.177 104.561C140.704 104.305 150 94.8499 150 83.2639V58.254C150 46.5066 140.443 36.9497 128.697 36.9497ZM144.141 83.2628C144.141 91.7795 137.212 98.7077 128.697 98.7077H126.254C124.679 98.7077 123.386 99.9528 123.326 101.528C123.199 104.91 123.476 108.845 124.15 113.227C119.885 111.637 114.415 108.183 111.914 100.708C111.515 99.5134 110.395 98.7077 109.137 98.7077H85.302C76.7864 98.7077 69.8582 91.7795 69.8582 83.2628V65.6549C69.8582 65.6537 69.8582 65.6526 69.8582 65.6515C69.8582 65.6503 69.8582 65.6492 69.8582 65.648V58.2528C69.8582 55.6264 70.5288 53.0332 71.7968 50.7547C72.5842 49.3402 72.076 47.5572 70.6615 46.7698C69.2482 45.9825 67.4641 46.4917 66.6767 47.9051C64.9246 51.0534 63.9988 54.6308 63.9988 58.2528V62.7218H40.8634C39.6034 62.7218 38.4842 63.5274 38.0848 64.7222C35.5854 72.1975 30.1151 75.6525 25.8499 77.2409C26.5228 72.8589 26.7998 68.9245 26.6739 65.5416C26.6144 63.9669 25.3212 62.7218 23.7453 62.7218H21.3032C12.7876 62.7218 5.85938 55.7935 5.85938 47.278V22.268C5.85938 13.7525 12.7876 6.82422 21.3032 6.82422H77.4799C85.9955 6.82422 92.9237 13.7525 92.9237 22.268V36.9508H88.7695C87.1513 36.9508 85.8398 38.2623 85.8398 39.8805C85.8398 41.4987 87.1513 42.8102 88.7695 42.8102H128.697C137.212 42.8102 144.141 49.7384 144.141 58.254V83.2628Z" fill="#0F4D52"/>
<path d="M60.8202 25.1302C62.4384 25.1302 63.7499 23.8187 63.7499 22.2005C63.7499 20.5823 62.4384 19.2708 60.8202 19.2708H49.6439V14.8866C49.6439 13.2684 48.3324 11.9569 46.7142 11.9569C45.0972 11.9569 43.7845 13.2684 43.7845 14.8866V19.2708H32.6094C30.9912 19.2708 29.6797 20.5823 29.6797 22.2005C29.6797 23.8187 30.9912 25.1302 32.6094 25.1302H52.0277C51.4727 27.5689 50.1028 31.5068 46.7268 35.9414C45.1017 33.8071 43.9585 31.817 43.1585 30.1026C42.4742 28.6366 40.7301 28.0026 39.2641 28.6881C37.7981 29.3725 37.1641 31.1154 37.8485 32.5814C38.9082 34.8508 40.4715 37.5298 42.7649 40.3794C39.9485 43.1054 36.3115 45.8886 31.6103 48.5288C30.1992 49.3207 29.698 51.106 30.4899 52.517C31.0267 53.4749 32.0223 54.0128 33.0477 54.0128C33.5329 54.0128 34.025 53.8926 34.4782 53.6374C39.5765 50.7752 43.5808 47.7277 46.728 44.7007C49.8488 47.7082 53.8416 50.7707 58.9502 53.6374C59.4046 53.8926 59.8967 54.0128 60.3819 54.0128C61.4061 54.0128 62.4018 53.4749 62.9397 52.517C63.7316 51.106 63.2292 49.3207 61.8193 48.5288C57.1135 45.8875 53.488 43.0963 50.6888 40.3829C55.7596 34.0737 57.4385 28.3174 57.9912 25.1302H60.8202Z" fill="#0F4D52"/>
<path d="M76.9731 38.9455H76.9663C75.3492 38.9455 74.04 40.257 74.04 41.8752C74.04 43.4934 75.3561 44.8049 76.9731 44.8049C78.5913 44.8049 79.9028 43.4934 79.9028 41.8752C79.9028 40.257 78.5913 38.9455 76.9731 38.9455Z" fill="#0F4D52"/>
</g>
<defs>
<filter id="filter0_d_387_9459" x="0" y="0.964844" width="158" height="126.224" filterUnits="userSpaceOnUse" color-interpolation-filters="sRGB">
<feFlood flood-opacity="0" result="BackgroundImageFix"/>
<feColorMatrix in="SourceAlpha" type="matrix" values="0 0 0 0 0 0 0 0 0 0 0 0 0 0 0 0 0 0 127 0" result="hardAlpha"/>
<feOffset dx="4" dy="4"/>
<feGaussianBlur stdDeviation="2"/>
<feComposite in2="hardAlpha" operator="out"/>
<feColorMatrix type="matrix" values="0 0 0 0 1 0 0 0 0 1 0 0 0 0 1 0 0 0 0.96 0"/>
<feBlend mode="normal" in2="BackgroundImageFix" result="effect1_dropShadow_387_9459"/>
<feBlend mode="normal" in="SourceGraphic" in2="effect1_dropShadow_387_9459" result="shape"/>
</filter>
</defs>
</svg>
