<svg width="30" height="28" viewBox="0 0 30 28" fill="none" xmlns="http://www.w3.org/2000/svg">
<path d="M29.67 5.77997C28.6964 2.6381 25.7893 0.497285 22.5 0.499964H7.49996C4.21073 0.497354 1.30362 2.63817 0.329975 5.77997C0.113495 6.50024 0.00233586 7.24799 0 8V20C0.00151144 24.1416 3.35849 27.4985 7.49996 27.5H22.5C26.6415 27.4985 29.9985 24.1415 29.9999 20V8C29.9977 7.24799 29.8865 6.50024 29.67 5.77997ZM7.49996 3.50003H22.5C24.7046 3.50635 26.582 5.10463 26.94 7.28001L14.9999 13.79L3.05998 7.28001C3.41798 5.10463 5.29533 3.50629 7.49996 3.50003ZM27 20C26.9927 22.4823 24.9823 24.4928 22.5 24.5H7.49996C5.0177 24.4927 3.00721 22.4823 3 20V10.67L14.28 16.82C14.7299 17.0606 15.2701 17.0606 15.72 16.82L27 10.67V20Z" fill="url(#paint0_linear_572_17637)"/>
<defs>
<linearGradient id="paint0_linear_572_17637" x1="-3.50648" y1="0.499959" x2="34.3756" y2="3.22431" gradientUnits="userSpaceOnUse">
<stop stop-color="#66A882"/>
<stop offset="1" stop-color="#488774"/>
</linearGradient>
</defs>
</svg>
