<svg width="35" height="35" viewBox="0 0 35 35" fill="none" xmlns="http://www.w3.org/2000/svg">
<path d="M17.5007 1.4585C14.3279 1.4585 11.2264 2.39932 8.58839 4.162C5.95035 5.92469 3.89425 8.43005 2.68009 11.3613C1.46594 14.2925 1.14826 17.518 1.76723 20.6297C2.3862 23.7415 3.91402 26.5999 6.15749 28.8433C8.40095 31.0868 11.2593 32.6146 14.3711 33.2336C17.4829 33.8526 20.7083 33.5349 23.6395 32.3207C26.5708 31.1066 29.0761 29.0505 30.8388 26.4124C32.6015 23.7744 33.5423 20.6729 33.5423 17.5002C33.5373 13.2472 31.8456 9.16984 28.8383 6.16253C25.831 3.15522 21.7536 1.46351 17.5007 1.4585ZM17.5007 30.6252C14.9048 30.6252 12.3672 29.8554 10.2088 28.4132C8.0504 26.971 6.36814 24.9212 5.37474 22.5229C4.38134 20.1246 4.12142 17.4856 4.62785 14.9396C5.13428 12.3936 6.38432 10.055 8.21988 8.21939C10.0554 6.38382 12.3941 5.13379 14.9401 4.62736C17.4861 4.12092 20.1251 4.38084 22.5234 5.37424C24.9217 6.36764 26.9715 8.04991 28.4137 10.2083C29.8559 12.3667 30.6257 14.9043 30.6257 17.5002C30.6218 20.9799 29.2378 24.3161 26.7772 26.7767C24.3166 29.2373 20.9804 30.6213 17.5007 30.6252Z" fill="url(#paint0_linear_1128_2386)"/>
<path d="M23.8049 12.7792L16.0845 19.8564L12.6967 16.4687C12.5622 16.3295 12.4013 16.2184 12.2234 16.1419C12.0455 16.0655 11.8541 16.0253 11.6605 16.0236C11.4668 16.0219 11.2748 16.0588 11.0956 16.1321C10.9163 16.2055 10.7535 16.3137 10.6166 16.4507C10.4797 16.5876 10.3714 16.7504 10.298 16.9296C10.2247 17.1089 10.1878 17.3009 10.1895 17.4945C10.1912 17.6882 10.2314 17.8795 10.3079 18.0575C10.3843 18.2354 10.4954 18.3963 10.6347 18.5308L15.0097 22.9058C15.2754 23.1716 15.6335 23.3245 16.0093 23.3327C16.3851 23.3408 16.7495 23.2036 17.0265 22.9496L25.7765 14.9287C26.0616 14.6673 26.2311 14.3033 26.2478 13.9169C26.2645 13.5304 26.127 13.1532 25.8655 12.8681C25.604 12.5831 25.2401 12.4135 24.8536 12.3969C24.4672 12.3802 24.0899 12.5177 23.8049 12.7792Z" fill="url(#paint1_linear_1128_2386)"/>
<defs>
<linearGradient id="paint0_linear_1128_2386" x1="-2.29102" y1="1.45849" x2="38.2615" y2="4.08326" gradientUnits="userSpaceOnUse">
<stop stop-color="#66A882"/>
<stop offset="1" stop-color="#488774"/>
</linearGradient>
<linearGradient id="paint1_linear_1128_2386" x1="8.31235" y1="12.3955" x2="28.514" y2="14.3154" gradientUnits="userSpaceOnUse">
<stop stop-color="#66A882"/>
<stop offset="1" stop-color="#488774"/>
</linearGradient>
</defs>
</svg>
