<svg width="20" height="20" viewBox="0 0 20 20" fill="none" xmlns="http://www.w3.org/2000/svg">
<g clip-path="url(#clip0_572_17028)">
<path d="M18.5547 18.8281H1.44531C1.06199 18.8281 0.694371 18.6759 0.423322 18.4048C0.152274 18.1338 0 17.7661 0 17.3828L0 2.61719C0 2.23387 0.152274 1.86625 0.423322 1.5952C0.694371 1.32415 1.06199 1.17188 1.44531 1.17188H18.5547C18.938 1.17188 19.3056 1.32415 19.5767 1.5952C19.8477 1.86625 20 2.23387 20 2.61719V17.3828C20 17.7661 19.8477 18.1338 19.5767 18.4048C19.3056 18.6759 18.938 18.8281 18.5547 18.8281V18.8281ZM1.95312 16.875H18.0469V3.125H1.95312V16.875Z" fill="black"/>
<path d="M0.9762 16.3671C0.781388 16.3675 0.590933 16.3095 0.429319 16.2007C0.267705 16.0919 0.142319 15.9373 0.0692803 15.7567C-0.00375869 15.5761 -0.0211124 15.3778 0.01945 15.1872C0.0600125 14.9967 0.156637 14.8226 0.296902 14.6875L5.17972 9.96089C5.35106 9.79498 5.57718 9.69751 5.81544 9.68686C6.0537 9.67621 6.28763 9.75312 6.47308 9.90308L9.78519 12.5816L13.4899 7.87144C13.5825 7.75384 13.701 7.65913 13.8361 7.59461C13.9712 7.53009 14.1193 7.49749 14.269 7.49934C14.4187 7.50119 14.566 7.53744 14.6995 7.60528C14.8329 7.67311 14.949 7.77073 15.0387 7.89058L19.8043 14.2187C19.8813 14.3213 19.9373 14.438 19.9691 14.5623C20.0009 14.6865 20.008 14.8158 19.9898 14.9427C19.9717 15.0697 19.9287 15.1918 19.8634 15.3022C19.7981 15.4125 19.7116 15.5089 19.609 15.5859C19.5064 15.6628 19.3897 15.7188 19.2655 15.7507C19.1412 15.7825 19.0119 15.7895 18.885 15.7714C18.758 15.7533 18.6359 15.7103 18.5255 15.6449C18.4152 15.5796 18.3188 15.4932 18.2418 15.3906L14.2407 10.0781L10.7086 14.5703C10.6287 14.672 10.5294 14.7568 10.4164 14.8198C10.3034 14.8828 10.179 14.9228 10.0505 14.9373C9.92194 14.9518 9.79179 14.9407 9.66759 14.9045C9.54338 14.8683 9.42761 14.8078 9.32699 14.7265L5.91722 11.9691L1.6555 16.0937C1.47324 16.2697 1.22957 16.3678 0.9762 16.3671V16.3671Z" fill="black"/>
<path d="M6.76757 8.23241C6.51455 8.23241 6.26722 8.15738 6.05684 8.01681C5.84646 7.87624 5.68249 7.67644 5.58566 7.44268C5.48884 7.20892 5.4635 6.9517 5.51286 6.70354C5.56222 6.45538 5.68407 6.22744 5.86298 6.04852C6.04189 5.86961 6.26984 5.74777 6.518 5.69841C6.76616 5.64905 7.02338 5.67438 7.25714 5.77121C7.4909 5.86804 7.6907 6.03201 7.83127 6.24238C7.97184 6.45276 8.04687 6.7001 8.04687 6.95312C8.04645 7.29228 7.91154 7.61744 7.67171 7.85726C7.43189 8.09708 7.10674 8.232 6.76757 8.23241V8.23241ZM6.76757 6.2793C6.6343 6.2793 6.50403 6.31881 6.39322 6.39286C6.28241 6.4669 6.19604 6.57213 6.14504 6.69526C6.09404 6.81838 6.0807 6.95387 6.1067 7.08458C6.1327 7.21529 6.19687 7.33535 6.29111 7.42959C6.38534 7.52382 6.50541 7.588 6.63612 7.614C6.76683 7.64 6.90231 7.62665 7.02544 7.57565C7.14856 7.52465 7.2538 7.43829 7.32784 7.32748C7.40188 7.21667 7.4414 7.08639 7.4414 6.95312C7.44119 6.77447 7.37013 6.6032 7.24381 6.47688C7.11749 6.35056 6.94622 6.2795 6.76757 6.2793V6.2793Z" fill="black"/>
<path d="M7.12891 6.16211H6.49414C6.23526 6.16211 6.02539 6.37198 6.02539 6.63086V7.26562C6.02539 7.52451 6.23526 7.73438 6.49414 7.73438H7.12891C7.38779 7.73438 7.59766 7.52451 7.59766 7.26562V6.63086C7.59766 6.37198 7.38779 6.16211 7.12891 6.16211Z" fill="black"/>
</g>
<defs>
<clipPath id="clip0_572_17028">
<rect width="20" height="20" fill="white"/>
</clipPath>
</defs>
</svg>
